<svg width="11" height="11" viewBox="0 0 11 11" fill="none" xmlns="http://www.w3.org/2000/svg">
<path d="M5.63339 5.35033V0.622633C5.63339 0.461899 5.5048 0.333313 5.34407 0.333313C5.18334 0.333313 5.05475 0.461899 5.05475 0.622633V5.35033C4.38396 5.48534 3.87604 6.07898 3.87604 6.7905C3.87604 7.50201 4.38396 8.09565 5.05475 8.23066V10.3352C5.05475 10.4959 5.18334 10.6245 5.34407 10.6245C5.5048 10.6245 5.63339 10.4959 5.63339 10.3352V8.23066C6.30418 8.09565 6.8121 7.50201 6.8121 6.7905C6.8121 6.08113 6.30633 5.48534 5.63339 5.35033ZM5.34407 7.67989C4.8533 7.67989 4.45468 7.28127 4.45468 6.7905C4.45468 6.29972 4.8533 5.90111 5.34407 5.90111C5.83484 5.90111 6.23346 6.29972 6.23346 6.7905C6.23346 7.28127 5.83484 7.67989 5.34407 7.67989Z" fill="#7E8389"/>
<path d="M2.09066 2.92433V0.622633C2.09066 0.461899 1.96208 0.333313 1.80134 0.333313C1.64061 0.333313 1.51202 0.461899 1.51202 0.622633V2.92433C0.84123 3.05935 0.333313 3.65299 0.333313 4.3645C0.333313 5.07601 0.84123 5.66965 1.51202 5.80467V10.3352C1.51202 10.4959 1.64061 10.6245 1.80134 10.6245C1.96208 10.6245 2.09066 10.4959 2.09066 10.3352V5.80252C2.76145 5.66751 3.26937 5.07387 3.26937 4.36236C3.26937 3.65084 2.76145 3.05935 2.09066 2.92433ZM1.80134 5.25389C1.31057 5.25389 0.911952 4.85527 0.911952 4.3645C0.911952 3.87373 1.31057 3.47511 1.80134 3.47511C2.29211 3.47511 2.69073 3.87373 2.69073 4.3645C2.69073 4.85527 2.28997 5.25389 1.80134 5.25389Z" fill="#7E8389"/>
<path d="M9.15462 2.92433V0.622633C9.15462 0.461899 9.02604 0.333313 8.8653 0.333313C8.70457 0.333313 8.57599 0.461899 8.57599 0.622633V2.92433C7.90519 3.05935 7.39728 3.65299 7.39728 4.3645C7.39728 5.07601 7.90519 5.66965 8.57599 5.80467V10.3373C8.57599 10.4981 8.70457 10.6267 8.8653 10.6267C9.02604 10.6267 9.15462 10.4981 9.15462 10.3373V5.80252C9.82542 5.66751 10.3333 5.07387 10.3333 4.36236C10.3333 3.65084 9.82756 3.05935 9.15462 2.92433ZM8.8653 5.25389C8.37453 5.25389 7.97592 4.85527 7.97592 4.3645C7.97592 3.87373 8.37453 3.47511 8.8653 3.47511C9.35608 3.47511 9.75469 3.87373 9.75469 4.3645C9.75469 4.85527 9.35608 5.25389 8.8653 5.25389Z" fill="#7E8389"/>
</svg>
