<svg width="40" height="28" viewBox="0 0 40 28" fill="none" xmlns="http://www.w3.org/2000/svg">
<path d="M39.1611 2.22524C39.1571 2.22931 39.153 2.22931 39.153 2.23783L39.1445 2.24598C39.1319 2.25894 39.1274 2.26301 39.1319 2.26301L27.0239 14.9852L24.1721 17.9826C24.167 17.9789 24.1612 17.9761 24.1551 17.9745L24.1047 17.9493L12.4432 12.7456L12.8684 12.5478L14.8343 11.626L17.5751 10.3419C17.5799 10.3378 17.5856 10.3349 17.5917 10.3334H17.5962L38.0482 0.755975C38.2434 0.664292 38.4645 0.642475 38.6741 0.694182C38.8834 0.74589 39.0689 0.867992 39.1993 1.04005C39.3297 1.21211 39.3971 1.42369 39.39 1.63942C39.383 1.85516 39.3022 2.06196 39.1611 2.22524Z" fill="url(#paint0_linear_403_615)"/>
<g style="mix-blend-mode:multiply" opacity="0.2">
<g style="mix-blend-mode:multiply" opacity="0.2">
<path d="M0.526497 8.58643H0.530939C0.526494 8.5905 0.526496 8.59457 0.522422 8.59902C0.522107 8.59672 0.52231 8.59443 0.523015 8.59224C0.523721 8.59006 0.524911 8.58806 0.526497 8.58643Z" fill="black"/>
</g>
</g>
<g style="mix-blend-mode:multiply" opacity="0.2">
<g style="mix-blend-mode:multiply" opacity="0.2">
<path d="M24.1736 17.9826C24.1736 17.9826 23.7903 17.8437 23.1251 17.5911C22.4584 17.326 21.5084 16.9726 20.3762 16.5093C19.2436 16.0545 17.9258 15.5115 16.5244 14.9137C15.1229 14.316 13.6321 13.6593 12.1418 13.0026C11.401 12.6656 10.6603 12.333 9.93176 12.0004C9.20324 11.6763 8.49176 11.3337 7.79731 11.0156C6.41657 10.3711 5.1325 9.75633 4.03769 9.21374C3.48621 8.94819 2.98954 8.69522 2.54324 8.46856C2.32435 8.35745 2.11398 8.2493 1.92843 8.16115C1.76187 8.08271 1.57722 8.05074 1.39398 8.06856C1.12838 8.0927 0.879511 8.20878 0.690277 8.3967C0.67365 8.41248 0.658178 8.42945 0.643981 8.44745C0.631018 8.46004 0.618428 8.4767 0.606947 8.4893C0.594638 8.50063 0.583358 8.51304 0.573242 8.52633C0.72073 8.28811 0.950551 8.11237 1.21908 8.03241C1.48761 7.95245 1.77614 7.97389 2.02991 8.09263L12.4455 12.7445L12.8706 12.5467C14.204 13.1486 15.5355 13.7508 16.7818 14.336C18.1625 14.98 19.4466 15.5989 20.5451 16.1378C21.6436 16.6767 22.5451 17.1437 23.1806 17.4637C23.6562 17.7082 23.9762 17.8763 24.1066 17.9482L24.1569 17.9734C24.1631 17.9754 24.1687 17.9785 24.1736 17.9826Z" fill="black"/>
</g>
</g>
<path d="M24.1738 17.9826L19.5812 22.8115C19.578 22.8153 19.5752 22.8196 19.573 22.8241C19.573 22.8241 19.5686 22.82 19.5686 22.8241L15.906 26.676C15.853 26.7324 15.7969 26.7858 15.7379 26.836C15.5075 27.0311 15.2392 27.1766 14.9498 27.263C14.6605 27.3495 14.3564 27.3752 14.0566 27.3384C13.7569 27.3016 13.468 27.2032 13.2082 27.0494C12.9483 26.8956 12.7231 26.6896 12.5468 26.4445L5.24231 16.2986V16.2945C5.23379 16.29 5.23379 16.286 5.23379 16.286L5.14564 16.1637L0.598965 9.853C0.46736 9.67841 0.388996 9.46952 0.373293 9.25141C0.357589 9.03333 0.405215 8.81537 0.510447 8.62374C0.514357 8.61878 0.517251 8.61311 0.518964 8.60707C0.519531 8.60707 0.520094 8.60696 0.520614 8.60674C0.521134 8.60648 0.521603 8.60615 0.521987 8.60574C0.522371 8.60533 0.522659 8.60482 0.52284 8.6043C0.523022 8.60374 0.523089 8.60319 0.523038 8.60263V8.59856C0.522723 8.59626 0.522926 8.59396 0.523631 8.59178C0.524337 8.58959 0.525527 8.58759 0.527113 8.58596H0.531555C0.539703 8.56893 0.556742 8.55226 0.573409 8.52707C0.720897 8.28885 0.95072 8.11307 1.21925 8.03311C1.48777 7.95319 1.77631 7.97463 2.03008 8.09337L12.4456 12.7452L24.1071 17.9489L24.1575 17.9741C24.1634 17.9759 24.1689 17.9788 24.1738 17.9826Z" fill="url(#paint1_linear_403_615)"/>
<g style="mix-blend-mode:multiply" opacity="0.2">
<g style="mix-blend-mode:multiply" opacity="0.2">
<path d="M27.0239 14.9852L24.1721 17.9826C24.167 17.9789 24.1612 17.9761 24.1551 17.9745L12.4432 12.7456L12.8684 12.5478L14.8343 11.626L27.0239 14.9852Z" fill="black"/>
</g>
</g>
<g style="mix-blend-mode:screen" opacity="0.5">
<g style="mix-blend-mode:screen" opacity="0.5">
<path d="M0.526487 8.58643H0.53093C0.526485 8.59457 0.522412 8.59902 0.522412 8.60309C0.521809 8.59724 0.523249 8.59135 0.526487 8.58643Z" fill="white"/>
</g>
</g>
<g style="mix-blend-mode:screen" opacity="0.5">
<g style="mix-blend-mode:screen" opacity="0.5">
<path d="M24.1736 17.9826C24.1736 17.9826 23.7903 17.8437 23.1251 17.5911C22.4584 17.326 21.5084 16.9726 20.3762 16.5093C19.2436 16.0545 17.9258 15.5115 16.5244 14.9137C15.1229 14.316 13.6321 13.6593 12.1418 13.0026C11.401 12.6656 10.6603 12.333 9.93176 12.0004C9.20324 11.6763 8.49176 11.3337 7.79731 11.0156C6.41657 10.3711 5.1325 9.75633 4.03769 9.21374C3.48621 8.94819 2.98954 8.69522 2.54324 8.46856C2.32435 8.35745 2.11398 8.2493 1.92843 8.16115C1.76187 8.08271 1.57722 8.05074 1.39398 8.06856C1.12838 8.0927 0.879511 8.20878 0.690277 8.3967C0.67365 8.41248 0.658178 8.42945 0.643981 8.44745C0.630457 8.4603 0.618069 8.47433 0.606947 8.4893C0.594638 8.50063 0.583358 8.51304 0.573242 8.52633C0.72073 8.28811 0.950551 8.11237 1.21908 8.03241C1.48761 7.95245 1.77614 7.97389 2.02991 8.09263L12.4455 12.7445L24.1069 17.9482L24.1573 17.9734C24.1633 17.9754 24.1688 17.9786 24.1736 17.9826Z" fill="white"/>
</g>
</g>
<g style="mix-blend-mode:multiply" opacity="0.2">
<g style="mix-blend-mode:multiply" opacity="0.2">
<path d="M19.5679 22.8241L15.9053 26.676C15.8523 26.7324 15.7962 26.7858 15.7372 26.836C15.5068 27.0312 15.2385 27.1766 14.9491 27.2631C14.6598 27.3495 14.3557 27.3752 14.0559 27.3384C13.7562 27.3017 13.4673 27.2033 13.2075 27.0494C12.9476 26.8956 12.7224 26.6896 12.5461 26.4445L5.24161 16.2986C5.29235 16.3534 5.50272 16.6015 5.8342 17.0023C6.20457 17.4653 6.75198 18.1178 7.37939 18.9178C8.00679 19.7178 8.73494 20.6564 9.49679 21.6753C10.2631 22.6856 11.0586 23.7864 11.8586 24.879L12.4479 25.7086L12.7383 26.1208L12.8142 26.2219C12.8334 26.2514 12.8546 26.2796 12.8775 26.3064C12.9219 26.3666 12.9715 26.4228 13.0257 26.4745C13.2198 26.6708 13.4546 26.8219 13.7137 26.9172C13.9727 27.0125 14.2496 27.0497 14.5246 27.026C14.7935 27.0039 15.0547 26.925 15.2909 26.7945C15.4039 26.7323 15.5097 26.6577 15.6064 26.5723L15.6909 26.5008L15.7242 26.4712L15.7612 26.429L15.9168 26.2775C16.3294 25.8649 16.7253 25.4819 17.0957 25.1293C17.8242 24.4219 18.4557 23.8538 18.8849 23.4412C19.2698 23.0908 19.5135 22.8686 19.5679 22.8241Z" fill="black"/>
</g>
</g>
<g style="mix-blend-mode:screen" opacity="0.5">
<g style="mix-blend-mode:screen" opacity="0.5">
<path d="M39.2748 2.02304C39.3263 1.90663 39.3519 1.78021 39.3489 1.65284C39.3459 1.52547 39.3148 1.40032 39.2582 1.28638C39.1826 1.11663 39.0522 0.977022 38.8882 0.889773C38.7245 0.802524 38.5359 0.772645 38.353 0.804889C38.1226 0.881095 37.9022 0.984288 37.6963 1.1123C37.4563 1.23415 37.2035 1.36489 36.9424 1.49933C35.8898 2.04267 34.6565 2.66157 33.3302 3.31416C32.6635 3.63416 31.9791 3.98081 31.2758 4.30748C30.5725 4.63415 29.8658 4.97711 29.1543 5.31378C27.7228 5.98045 26.2913 6.63971 24.9399 7.24193C23.5884 7.84415 22.3258 8.39526 21.2362 8.85415C20.1458 9.32156 19.228 9.67934 18.588 9.94452C18.0365 10.1667 17.6828 10.2982 17.5988 10.3319L38.0508 0.754523C38.2459 0.663744 38.4663 0.642625 38.6756 0.694686C38.8845 0.746748 39.0693 0.868847 39.1993 1.04064C39.3293 1.21244 39.3963 1.42356 39.3893 1.63884C39.3826 1.85412 39.3022 2.06057 39.1619 2.22379C39.2067 2.16128 39.2445 2.09394 39.2748 2.02304Z" fill="white"/>
</g>
</g>
<g style="mix-blend-mode:screen" opacity="0.3">
<g style="mix-blend-mode:screen" opacity="0.3">
<path d="M38.3067 1.90923L36.7702 3.52183C35.663 4.68378 34.5572 5.84567 33.4527 7.00738L18.1876 10.9859C21.7661 9.31034 25.3463 7.63479 28.9283 5.95923C31.7782 4.6259 34.63 3.28998 37.4837 1.95146C37.7574 1.82516 38.0311 1.69442 38.3048 1.56812C38.64 1.40812 38.4493 1.75738 38.3067 1.90923Z" fill="white"/>
</g>
</g>
<g style="mix-blend-mode:screen" opacity="0.3">
<g style="mix-blend-mode:screen" opacity="0.3">
<path d="M22.7465 18.2649C22.0474 18.9936 21.3514 19.7246 20.6583 20.4582C20.4646 20.6605 20.2713 20.8656 20.0776 21.0686L1.5661 8.85156C1.77905 8.88949 1.98312 8.9666 2.16795 9.07897C5.16574 10.4175 8.16463 11.7563 11.1646 13.0953C15.0256 14.8207 18.8862 16.5439 22.7465 18.2649Z" fill="white"/>
</g>
</g>
<defs>
<linearGradient id="paint0_linear_403_615" x1="5.1405" y1="9.32471" x2="39.3904" y2="9.32471" gradientUnits="userSpaceOnUse">
<stop stop-color="#F8007A"/>
<stop offset="1" stop-color="#FC7300"/>
</linearGradient>
<linearGradient id="paint1_linear_403_615" x1="21.4364" y1="14.2031" x2="4.6519" y2="20.7434" gradientUnits="userSpaceOnUse">
<stop stop-color="#FCC400"/>
<stop offset="0.162" stop-color="#FBC000"/>
<stop offset="0.307" stop-color="#FBB500"/>
<stop offset="0.446" stop-color="#FBA300"/>
<stop offset="0.581" stop-color="#FA8900"/>
<stop offset="0.712" stop-color="#FA6800"/>
<stop offset="0.842" stop-color="#F93F00"/>
<stop offset="0.967" stop-color="#F81000"/>
<stop offset="1" stop-color="#F80300"/>
</linearGradient>
</defs>
</svg>
