<svg width="40" height="28" viewBox="0 0 40 28" fill="none" xmlns="http://www.w3.org/2000/svg">
<path d="M39.1611 2.22512C39.1571 2.22919 39.153 2.22919 39.153 2.23771L39.1445 2.24586C39.1319 2.25882 39.1274 2.26289 39.1319 2.26289L27.0239 14.9851L24.1721 17.9825C24.167 17.9787 24.1612 17.976 24.1551 17.9744L24.1047 17.9492L12.4432 12.7455L12.8684 12.5477L14.8343 11.6258L17.5751 10.3418C17.5799 10.3377 17.5856 10.3348 17.5917 10.3333H17.5962L38.0482 0.755853C38.2434 0.66417 38.4645 0.642353 38.6741 0.69406C38.8834 0.745768 39.0689 0.86787 39.1993 1.03992C39.3297 1.21198 39.3971 1.42357 39.39 1.6393C39.383 1.85504 39.3022 2.06184 39.1611 2.22512Z" fill="url(#paint0_linear_403_450)"/>
<g style="mix-blend-mode:multiply" opacity="0.2">
<g style="mix-blend-mode:multiply" opacity="0.2">
<path d="M0.526497 8.5863H0.530939C0.526494 8.59038 0.526496 8.59445 0.522422 8.5989C0.522107 8.5966 0.52231 8.5943 0.523015 8.59212C0.523721 8.58993 0.524911 8.58793 0.526497 8.5863Z" fill="black"/>
</g>
</g>
<g style="mix-blend-mode:multiply" opacity="0.2">
<g style="mix-blend-mode:multiply" opacity="0.2">
<path d="M24.1736 17.9825C24.1736 17.9825 23.7903 17.8436 23.1251 17.591C22.4585 17.3258 21.5085 16.9725 20.3762 16.5092C19.2436 16.0544 17.9259 15.5114 16.5244 14.9136C15.1229 14.3158 13.6322 13.6592 12.1418 13.0025C11.401 12.6655 10.6603 12.3329 9.93179 12.0003C9.20327 11.6762 8.49179 11.3336 7.79734 11.0155C6.4166 10.371 5.13253 9.75621 4.03772 9.21362C3.48624 8.94806 2.98957 8.6951 2.54327 8.46843C2.32438 8.35732 2.11401 8.24918 1.92846 8.16103C1.7619 8.08258 1.57725 8.05062 1.39402 8.06843C1.12841 8.09258 0.879541 8.20866 0.690308 8.39658C0.673681 8.41236 0.658209 8.42932 0.644011 8.44732C0.631048 8.45992 0.618459 8.47658 0.606978 8.48918C0.594669 8.50051 0.583389 8.51292 0.573273 8.52621C0.72076 8.28799 0.950582 8.11225 1.21911 8.03229C1.48764 7.95232 1.77617 7.97377 2.02994 8.09251L12.4455 12.7444L12.8707 12.5466C14.204 13.1484 15.5355 13.7507 16.7818 14.3358C18.1625 14.9799 19.4466 15.5988 20.5451 16.1377C21.6436 16.6766 22.5451 17.1436 23.1807 17.4636C23.6562 17.7081 23.9762 17.8762 24.1066 17.9481L24.157 17.9732C24.1631 17.9752 24.1687 17.9784 24.1736 17.9825Z" fill="black"/>
</g>
</g>
<path d="M24.1738 17.9825L19.5812 22.8114C19.578 22.8152 19.5752 22.8194 19.573 22.824C19.573 22.824 19.5686 22.8199 19.5686 22.824L15.906 26.6758C15.853 26.7323 15.7969 26.7857 15.7379 26.8358C15.5075 27.031 15.2392 27.1765 14.9498 27.2629C14.6605 27.3494 14.3564 27.3751 14.0566 27.3383C13.7569 27.3015 13.468 27.2031 13.2082 27.0493C12.9483 26.8954 12.7231 26.6895 12.5468 26.4444L5.24231 16.2984V16.2944C5.23379 16.2899 5.23379 16.2858 5.23379 16.2858L5.14564 16.1636L0.598965 9.85288C0.46736 9.67829 0.388996 9.4694 0.373293 9.25129C0.357589 9.03321 0.405215 8.81525 0.510447 8.62362C0.514357 8.61866 0.517251 8.61299 0.518964 8.60695C0.519531 8.60695 0.520094 8.60684 0.520614 8.60662C0.521134 8.60636 0.521603 8.60603 0.521987 8.60562C0.522371 8.60521 0.522659 8.60469 0.52284 8.60417C0.523022 8.60362 0.523089 8.60306 0.523038 8.60251V8.59843C0.522723 8.59614 0.522926 8.59384 0.523631 8.59166C0.524337 8.58947 0.525527 8.58747 0.527113 8.58584H0.531555C0.539703 8.5688 0.556742 8.55214 0.573409 8.52695C0.720897 8.28873 0.95072 8.11295 1.21925 8.03299C1.48777 7.95306 1.77631 7.97451 2.03008 8.09325L12.4456 12.7451L24.1071 17.9488L24.1575 17.974C24.1634 17.9758 24.1689 17.9787 24.1738 17.9825Z" fill="url(#paint1_linear_403_450)"/>
<g style="mix-blend-mode:multiply" opacity="0.2">
<g style="mix-blend-mode:multiply" opacity="0.2">
<path d="M27.0239 14.9852L24.1721 17.9826C24.167 17.9789 24.1612 17.9761 24.1551 17.9745L12.4432 12.7456L12.8684 12.5478L14.8343 11.626L27.0239 14.9852Z" fill="black"/>
</g>
</g>
<g style="mix-blend-mode:screen" opacity="0.5">
<g style="mix-blend-mode:screen" opacity="0.5">
<path d="M0.526487 8.5863H0.53093C0.526485 8.59445 0.522412 8.5989 0.522412 8.60297C0.521809 8.59712 0.523249 8.59123 0.526487 8.5863Z" fill="white"/>
</g>
</g>
<g style="mix-blend-mode:screen" opacity="0.5">
<g style="mix-blend-mode:screen" opacity="0.5">
<path d="M24.1736 17.9825C24.1736 17.9825 23.7903 17.8436 23.1251 17.591C22.4585 17.3258 21.5085 16.9725 20.3762 16.5092C19.2436 16.0544 17.9259 15.5114 16.5244 14.9136C15.1229 14.3158 13.6322 13.6592 12.1418 13.0025C11.401 12.6655 10.6603 12.3329 9.93179 12.0003C9.20327 11.6762 8.49179 11.3336 7.79734 11.0155C6.4166 10.371 5.13253 9.75621 4.03772 9.21362C3.48624 8.94806 2.98957 8.6951 2.54327 8.46843C2.32438 8.35732 2.11401 8.24918 1.92846 8.16103C1.7619 8.08258 1.57725 8.05062 1.39402 8.06843C1.12841 8.09258 0.879541 8.20866 0.690308 8.39658C0.673681 8.41236 0.658209 8.42932 0.644011 8.44732C0.630488 8.46018 0.618099 8.47421 0.606978 8.48918C0.594669 8.50051 0.583389 8.51292 0.573273 8.52621C0.72076 8.28799 0.950582 8.11225 1.21911 8.03229C1.48764 7.95232 1.77617 7.97377 2.02994 8.09251L12.4455 12.7444L24.107 17.9481L24.1573 17.9732C24.1633 17.9753 24.1688 17.9784 24.1736 17.9825Z" fill="white"/>
</g>
</g>
<g style="mix-blend-mode:multiply" opacity="0.2">
<g style="mix-blend-mode:multiply" opacity="0.2">
<path d="M19.5679 22.824L15.9053 26.6759C15.8523 26.7323 15.7962 26.7857 15.7372 26.8359C15.5068 27.0311 15.2385 27.1765 14.9491 27.2629C14.6598 27.3494 14.3557 27.3751 14.0559 27.3383C13.7562 27.3015 13.4673 27.2031 13.2075 27.0493C12.9476 26.8955 12.7224 26.6895 12.5461 26.4444L5.24161 16.2985C5.29235 16.3533 5.50272 16.6014 5.8342 17.0022C6.20457 17.4651 6.75198 18.1177 7.37939 18.9177C8.00679 19.7177 8.73494 20.6562 9.49679 21.6751C10.2631 22.6855 11.0586 23.7862 11.8586 24.8788L12.4479 25.7085L12.7383 26.1207L12.8142 26.2218C12.8334 26.2513 12.8546 26.2795 12.8775 26.3062C12.9219 26.3665 12.9715 26.4227 13.0257 26.4744C13.2198 26.6706 13.4546 26.8218 13.7137 26.9171C13.9727 27.0124 14.2496 27.0495 14.5246 27.0259C14.7935 27.0038 15.0547 26.9249 15.2909 26.7944C15.4039 26.7321 15.5097 26.6576 15.6064 26.5722L15.6909 26.5007L15.7242 26.4711L15.7612 26.4288L15.9168 26.2774C16.3294 25.8648 16.7253 25.4818 17.0957 25.1292C17.8242 24.4218 18.4557 23.8536 18.8849 23.4411C19.2698 23.0907 19.5135 22.8685 19.5679 22.824Z" fill="black"/>
</g>
</g>
<g style="mix-blend-mode:screen" opacity="0.5">
<g style="mix-blend-mode:screen" opacity="0.5">
<path d="M39.2748 2.02291C39.3263 1.90651 39.3519 1.78008 39.3489 1.65271C39.3459 1.52535 39.3148 1.4002 39.2582 1.28625C39.1826 1.11651 39.0522 0.9769 38.8882 0.889651C38.7245 0.802402 38.5359 0.772523 38.353 0.804767C38.1226 0.880973 37.9022 0.984166 37.6963 1.11218C37.4563 1.23403 37.2035 1.36477 36.9424 1.49921C35.8898 2.04254 34.6565 2.66144 33.3302 3.31404C32.6635 3.63404 31.9791 3.98069 31.2758 4.30736C30.5725 4.63403 29.8658 4.97699 29.1543 5.31366C27.7228 5.98032 26.2913 6.63958 24.9399 7.24181C23.5884 7.84403 22.3258 8.39514 21.2362 8.85403C20.1458 9.32144 19.228 9.67921 18.588 9.9444C18.0365 10.1666 17.6828 10.2981 17.5988 10.3318L38.0508 0.754401C38.2459 0.663622 38.4663 0.642503 38.6756 0.694564C38.8845 0.746626 39.0693 0.868725 39.1993 1.04052C39.3293 1.21232 39.3963 1.42344 39.3893 1.63872C39.3826 1.854 39.3022 2.06045 39.1619 2.22367C39.2067 2.16115 39.2445 2.09382 39.2748 2.02291Z" fill="white"/>
</g>
</g>
<g style="mix-blend-mode:screen" opacity="0.3">
<g style="mix-blend-mode:screen" opacity="0.3">
<path d="M38.3067 1.90923L36.7702 3.52183C35.663 4.68378 34.5572 5.84567 33.4527 7.00738L18.1876 10.9859C21.7661 9.31034 25.3463 7.63479 28.9283 5.95923C31.7782 4.6259 34.63 3.28998 37.4837 1.95146C37.7574 1.82516 38.0311 1.69442 38.3048 1.56812C38.64 1.40812 38.4493 1.75738 38.3067 1.90923Z" fill="white"/>
</g>
</g>
<g style="mix-blend-mode:screen" opacity="0.3">
<g style="mix-blend-mode:screen" opacity="0.3">
<path d="M22.7465 18.2648C22.0474 18.9934 21.3514 19.7245 20.6583 20.4581C20.4646 20.6603 20.2713 20.8655 20.0776 21.0685L1.5661 8.85144C1.77905 8.88937 1.98312 8.96648 2.16795 9.07885C5.16574 10.4174 8.16463 11.7561 11.1646 13.0951C15.0256 14.8206 18.8862 16.5438 22.7465 18.2648Z" fill="white"/>
</g>
</g>
<defs>
<linearGradient id="paint0_linear_403_450" x1="5.1405" y1="9.32459" x2="39.3904" y2="9.32459" gradientUnits="userSpaceOnUse">
<stop stop-color="#F8007A"/>
<stop offset="1" stop-color="#FC7300"/>
</linearGradient>
<linearGradient id="paint1_linear_403_450" x1="21.4364" y1="14.203" x2="4.6519" y2="20.7433" gradientUnits="userSpaceOnUse">
<stop stop-color="#FCC400"/>
<stop offset="0.162" stop-color="#FBC000"/>
<stop offset="0.307" stop-color="#FBB500"/>
<stop offset="0.446" stop-color="#FBA300"/>
<stop offset="0.581" stop-color="#FA8900"/>
<stop offset="0.712" stop-color="#FA6800"/>
<stop offset="0.842" stop-color="#F93F00"/>
<stop offset="0.967" stop-color="#F81000"/>
<stop offset="1" stop-color="#F80300"/>
</linearGradient>
</defs>
</svg>
