<svg width="34" height="24" viewBox="0 0 34 24" fill="none" xmlns="http://www.w3.org/2000/svg">
<path d="M33.8002 1.35798C33.7966 1.36153 33.7931 1.36153 33.7931 1.36895L33.7857 1.37606C33.7747 1.38735 33.7708 1.3909 33.7747 1.3909L23.2245 12.4763L20.7396 15.0881C20.7351 15.0848 20.7301 15.0824 20.7247 15.081L20.6808 15.0591L10.5197 10.5248L10.8901 10.3525L12.6031 9.54926L14.9913 8.43039C14.9955 8.42684 15.0005 8.42429 15.0058 8.42296H15.0097L32.8304 0.0777474C33.0005 -0.00213996 33.1931 -0.0211503 33.3758 0.0239048C33.5581 0.0689601 33.7198 0.175353 33.8334 0.325272C33.947 0.475195 34.0058 0.659559 33.9996 0.847537C33.9935 1.03551 33.9231 1.21571 33.8002 1.35798Z" fill="url(#paint0_linear_269_749)"/>
<g style="mix-blend-mode:multiply" opacity="0.2">
<g style="mix-blend-mode:multiply" opacity="0.2">
<path d="M0.136 6.90076H0.139871C0.135998 6.90431 0.136 6.90786 0.13245 6.91173C0.132175 6.90973 0.132352 6.90773 0.132967 6.90582C0.133582 6.90392 0.134619 6.90218 0.136 6.90076Z" fill="black"/>
</g>
</g>
<g style="mix-blend-mode:multiply" opacity="0.2">
<g style="mix-blend-mode:multiply" opacity="0.2">
<path d="M20.7408 15.0881C20.7408 15.0881 20.4068 14.9671 19.8272 14.747C19.2463 14.516 18.4185 14.2081 17.432 13.8044C16.4451 13.4081 15.2968 12.935 14.0757 12.4141C12.8545 11.8932 11.5556 11.321 10.2569 10.7489C9.61148 10.4552 8.96604 10.1654 8.33125 9.87557C7.69646 9.59319 7.07652 9.29468 6.47142 9.01746C5.26831 8.45593 4.14944 7.92021 3.19548 7.44742C2.71495 7.21603 2.28218 6.99562 1.89331 6.79811C1.70258 6.7013 1.51927 6.60706 1.35759 6.53025C1.21246 6.4619 1.05157 6.43405 0.891908 6.44957C0.660472 6.47062 0.443623 6.57176 0.278735 6.7355C0.264248 6.74925 0.250767 6.76403 0.238395 6.77972C0.2271 6.79069 0.216131 6.80521 0.206126 6.81618C0.195401 6.82606 0.185573 6.83687 0.176758 6.84846C0.305271 6.64088 0.505524 6.48775 0.739503 6.41808C0.973485 6.3484 1.2249 6.36709 1.44602 6.47055L10.5216 10.5239L10.892 10.3516C12.0538 10.876 13.214 11.4007 14.3 11.9106C15.5031 12.4719 16.6219 13.0111 17.5791 13.4807C18.5363 13.9502 19.3218 14.3572 19.8756 14.636C20.29 14.849 20.5688 14.9955 20.6824 15.0581L20.7263 15.0801C20.7316 15.0818 20.7365 15.0846 20.7408 15.0881Z" fill="black"/>
</g>
</g>
<path d="M20.741 15.0881L16.7393 19.2957C16.7365 19.2991 16.7341 19.3028 16.7322 19.3067C16.7322 19.3067 16.7283 19.3032 16.7283 19.3067L13.5369 22.663C13.4907 22.7122 13.4418 22.7587 13.3904 22.8024C13.1896 22.9725 12.9558 23.0992 12.7037 23.1746C12.4516 23.2499 12.1866 23.2723 11.9255 23.2402C11.6643 23.2082 11.4126 23.1224 11.1862 22.9884C10.9598 22.8544 10.7635 22.6749 10.6098 22.4613L4.24514 13.6207V13.6172C4.23772 13.6133 4.23772 13.6097 4.23772 13.6097L4.16091 13.5032L0.199192 8.00441C0.0845194 7.85228 0.0162374 7.67027 0.00255429 7.48022C-0.0111289 7.2902 0.0303699 7.10028 0.122063 6.9333C0.12547 6.92898 0.127991 6.92404 0.129484 6.91878C0.129978 6.91878 0.130468 6.91868 0.130921 6.91849C0.131375 6.91826 0.131784 6.91797 0.132118 6.91762C0.132452 6.91726 0.132704 6.91681 0.132862 6.91636C0.13302 6.91588 0.133079 6.91539 0.133034 6.91491V6.91136C0.132759 6.90936 0.132936 6.90736 0.133551 6.90545C0.134166 6.90355 0.135203 6.90181 0.136585 6.90039H0.140455C0.147555 6.88554 0.162402 6.87102 0.176925 6.84907C0.305437 6.6415 0.505692 6.48834 0.739671 6.41866C0.973649 6.34902 1.22506 6.3677 1.44618 6.47117L10.5217 10.5245L20.6829 15.0588L20.7268 15.0807C20.7319 15.0823 20.7368 15.0848 20.741 15.0881Z" fill="url(#paint1_linear_269_749)"/>
<g style="mix-blend-mode:multiply" opacity="0.2">
<g style="mix-blend-mode:multiply" opacity="0.2">
<path d="M23.2245 12.4764L20.7396 15.0882C20.7351 15.0849 20.7301 15.0825 20.7247 15.0811L10.5197 10.5249L10.8901 10.3526L12.6031 9.54932L23.2245 12.4764Z" fill="black"/>
</g>
</g>
<g style="mix-blend-mode:screen" opacity="0.5">
<g style="mix-blend-mode:screen" opacity="0.5">
<path d="M0.135992 6.90076H0.139862C0.13599 6.90786 0.132441 6.91173 0.132441 6.91528C0.131916 6.91018 0.13317 6.90505 0.135992 6.90076Z" fill="white"/>
</g>
</g>
<g style="mix-blend-mode:screen" opacity="0.5">
<g style="mix-blend-mode:screen" opacity="0.5">
<path d="M20.7408 15.0881C20.7408 15.0881 20.4068 14.9671 19.8272 14.747C19.2463 14.516 18.4185 14.2081 17.432 13.8044C16.4451 13.4081 15.2968 12.935 14.0757 12.4141C12.8545 11.8932 11.5556 11.321 10.2569 10.7489C9.61148 10.4552 8.96604 10.1654 8.33125 9.87557C7.69646 9.59319 7.07652 9.29468 6.47142 9.01746C5.26831 8.45593 4.14944 7.92021 3.19548 7.44742C2.71495 7.21603 2.28218 6.99562 1.89331 6.79811C1.70258 6.7013 1.51927 6.60706 1.35759 6.53025C1.21246 6.4619 1.05157 6.43405 0.891908 6.44957C0.660472 6.47062 0.443623 6.57176 0.278735 6.7355C0.264248 6.74925 0.250767 6.76403 0.238395 6.77972C0.226612 6.79091 0.215817 6.80315 0.206126 6.81618C0.195401 6.82606 0.185573 6.83687 0.176758 6.84846C0.305271 6.64088 0.505524 6.48775 0.739503 6.41808C0.973485 6.3484 1.2249 6.36709 1.44602 6.47055L10.5216 10.5239L20.6827 15.0581L20.7266 15.0801C20.7318 15.0819 20.7366 15.0846 20.7408 15.0881Z" fill="white"/>
</g>
</g>
<g style="mix-blend-mode:multiply" opacity="0.2">
<g style="mix-blend-mode:multiply" opacity="0.2">
<path d="M16.7277 19.3068L13.5363 22.6631C13.4901 22.7122 13.4412 22.7588 13.3898 22.8025C13.189 22.9725 12.9552 23.0993 12.7031 23.1746C12.451 23.25 12.186 23.2723 11.9248 23.2403C11.6637 23.2082 11.412 23.1225 11.1855 22.9885C10.9591 22.8544 10.7629 22.6749 10.6092 22.4614L4.24451 13.6208C4.28872 13.6685 4.47202 13.8847 4.76086 14.2339C5.08358 14.6373 5.56056 15.206 6.10725 15.903C6.65394 16.6001 7.2884 17.4179 7.95224 18.3057C8.61995 19.1861 9.31315 20.1452 10.0102 21.0972L10.5237 21.8201L10.7767 22.1793L10.8428 22.2674C10.8596 22.2931 10.878 22.3177 10.898 22.341C10.9367 22.3935 10.9799 22.4425 11.0271 22.4875C11.1962 22.6585 11.4009 22.7902 11.6266 22.8732C11.8523 22.9563 12.0935 22.9887 12.3332 22.968C12.5675 22.9488 12.7951 22.88 13.0009 22.7663C13.0994 22.7121 13.1916 22.6471 13.2758 22.5727L13.3494 22.5104L13.3785 22.4846L13.4107 22.4478L13.5463 22.3158C13.9058 21.9563 14.2508 21.6226 14.5735 21.3154C15.2083 20.699 15.7585 20.2039 16.1326 19.8444C16.4679 19.5391 16.6802 19.3455 16.7277 19.3068Z" fill="black"/>
</g>
</g>
<g style="mix-blend-mode:screen" opacity="0.5">
<g style="mix-blend-mode:screen" opacity="0.5">
<path d="M33.8992 1.18179C33.944 1.08037 33.9663 0.970206 33.9637 0.859222C33.9611 0.748242 33.934 0.639198 33.8847 0.53991C33.8188 0.392004 33.7052 0.270355 33.5623 0.194331C33.4196 0.118308 33.2553 0.0922724 33.0959 0.120368C32.8952 0.18677 32.7032 0.276687 32.5237 0.388231C32.3146 0.494406 32.0944 0.60832 31.8668 0.725468C30.9497 1.1989 29.875 1.73817 28.7194 2.30681C28.1385 2.58564 27.5421 2.88769 26.9292 3.17233C26.3164 3.45698 25.7007 3.75581 25.0807 4.04917C23.8334 4.63006 22.5861 5.20451 21.4085 5.72925C20.2309 6.25399 19.1307 6.7342 18.1813 7.13405C17.2312 7.54132 16.4315 7.85307 15.8738 8.08414C15.3933 8.27777 15.0851 8.39234 15.0118 8.42171L32.8326 0.0764827C33.0027 -0.00261749 33.1947 -0.0210196 33.377 0.0243439C33.559 0.0697075 33.7201 0.176098 33.8333 0.325792C33.9466 0.475485 34.005 0.659446 33.9989 0.84703C33.9931 1.03461 33.9231 1.2145 33.8007 1.35672C33.8398 1.30225 33.8727 1.24358 33.8992 1.18179Z" fill="white"/>
</g>
</g>
<g style="mix-blend-mode:screen" opacity="0.3">
<g style="mix-blend-mode:screen" opacity="0.3">
<path d="M33.0556 1.08272L31.7168 2.48785C30.752 3.50032 29.7885 4.51272 28.8261 5.52497L15.5249 8.99163C18.643 7.53164 21.7627 6.07166 24.8838 4.61167C27.367 3.44988 29.852 2.28583 32.3385 1.11952C32.577 1.00947 32.8155 0.895548 33.054 0.7855C33.346 0.646085 33.1798 0.950407 33.0556 1.08272Z" fill="white"/>
</g>
</g>
<g style="mix-blend-mode:screen" opacity="0.3">
<g style="mix-blend-mode:screen" opacity="0.3">
<path d="M19.4973 15.3341C18.8882 15.969 18.2817 16.606 17.6778 17.2452C17.509 17.4215 17.3405 17.6002 17.1718 17.7771L1.04187 7.13184C1.22742 7.16488 1.40524 7.23207 1.56629 7.32999C4.1784 8.4963 6.79146 9.66283 9.4055 10.8296C12.7697 12.333 16.1337 13.8345 19.4973 15.3341Z" fill="white"/>
</g>
</g>
<defs>
<linearGradient id="paint0_linear_269_749" x1="4.15648" y1="7.54407" x2="33.9999" y2="7.54407" gradientUnits="userSpaceOnUse">
<stop stop-color="#F8007A"/>
<stop offset="1" stop-color="#FC7300"/>
</linearGradient>
<linearGradient id="paint1_linear_269_749" x1="18.3558" y1="11.7948" x2="3.73069" y2="17.4937" gradientUnits="userSpaceOnUse">
<stop stop-color="#FCC400"/>
<stop offset="0.162" stop-color="#FBC000"/>
<stop offset="0.307" stop-color="#FBB500"/>
<stop offset="0.446" stop-color="#FBA300"/>
<stop offset="0.581" stop-color="#FA8900"/>
<stop offset="0.712" stop-color="#FA6800"/>
<stop offset="0.842" stop-color="#F93F00"/>
<stop offset="0.967" stop-color="#F81000"/>
<stop offset="1" stop-color="#F80300"/>
</linearGradient>
</defs>
</svg>
