<svg width="335" height="32" viewBox="0 0 335 32" fill="none" xmlns="http://www.w3.org/2000/svg">
<rect width="335" height="32" rx="8" fill="#767680" fill-opacity="0.12"/>
<rect x="110.431" y="8" width="0.634102" height="16" rx="0.317051" fill="#3C3C43" fill-opacity="0.36"/>
<path d="M27.8995 15.996V16.88H38.5595V15.996H27.8995ZM32.6575 16.542V21.014H33.7235V16.542H32.6575ZM33.2035 9.73C30.7595 9.73 29.0955 10.731 29.0955 12.304C29.0955 13.877 30.7595 14.878 33.2035 14.878C35.6605 14.878 37.3115 13.877 37.3115 12.304C37.3115 10.731 35.6605 9.73 33.2035 9.73ZM33.2035 10.601C34.9975 10.601 36.2065 11.264 36.2065 12.304C36.2065 13.344 34.9975 14.007 33.2035 14.007C31.4095 14.007 30.1875 13.344 30.1875 12.304C30.1875 11.264 31.4095 10.601 33.2035 10.601ZM48.3455 9.249V21.027H49.4245V9.249H48.3455ZM40.4675 17.296V18.193H41.4425C43.4575 18.193 45.2255 18.115 47.3575 17.764L47.2405 16.88C45.1605 17.218 43.4055 17.296 41.4425 17.296H40.4675ZM40.4415 10.354V11.238H44.7835V13.669H40.4675V17.634H41.5465V14.553H45.8755V10.354H40.4415ZM54.7905 10.276V11.173C54.7905 12.772 53.5815 14.228 51.8135 14.8L52.3595 15.658C54.3355 14.982 55.6875 13.24 55.6875 11.173V10.276H54.7905ZM54.9985 10.276V11.173C54.9985 13.162 56.3765 14.813 58.3265 15.45L58.8595 14.605C57.1305 14.059 55.8955 12.694 55.8955 11.173V10.276H54.9985ZM52.1125 10.029V10.9H58.5475V10.029H52.1125ZM60.2115 9.262V15.619H61.3035V9.262H60.2115ZM53.7245 16.204V20.858H61.3035V16.204H60.2375V17.595H54.7905V16.204H53.7245ZM54.7905 18.466H60.2375V19.974H54.7905V18.466ZM64.0695 10.211V11.095H70.3745V10.211H64.0695ZM63.8745 15.684C65.8895 15.684 68.6325 15.645 71.0245 15.268L70.9335 14.462C68.6065 14.748 65.7985 14.774 63.7445 14.774L63.8745 15.684ZM65.2265 10.835V15.086H66.2665V10.835H65.2265ZM68.1645 10.835V15.086H69.2175V10.835H68.1645ZM65.3305 16.971V17.855H72.0905V21.014H73.1825V16.971H65.3305ZM72.0905 9.262V16.386H73.1825V9.262H72.0905ZM81.3305 12.057V12.954H84.4895V12.057H81.3305ZM78.6265 9.795C76.8715 9.795 75.5975 10.913 75.5975 12.525C75.5975 14.137 76.8715 15.242 78.6265 15.242C80.3815 15.242 81.6555 14.137 81.6555 12.525C81.6555 10.913 80.3815 9.795 78.6265 9.795ZM78.6265 10.705C79.7835 10.705 80.6155 11.446 80.6155 12.525C80.6155 13.591 79.7835 14.345 78.6265 14.345C77.4695 14.345 76.6375 13.591 76.6375 12.525C76.6375 11.446 77.4695 10.705 78.6265 10.705ZM84.0085 9.262V15.567H85.0875V9.262H84.0085ZM77.5605 16.152V20.858H85.0875V16.152H84.0215V17.634H78.6395V16.152H77.5605ZM78.6395 18.492H84.0215V19.987H78.6395V18.492Z" fill="#7E8389"/>
<rect x="220.764" y="8" width="0.634102" height="16" rx="0.317051" fill="#3C3C43" fill-opacity="0.36"/>
<path d="M146.28 9.262V15.905H147.359V9.262H146.28ZM147.073 11.953V12.85H149.101V11.953H147.073ZM139.949 16.542V20.858H147.359V16.542H139.949ZM146.306 17.413V19.974H141.015V17.413H146.306ZM138.805 9.847V14.553H139.884V9.847H138.805ZM138.805 14.111V15.021H139.728C141.483 15.021 143.238 14.904 145.227 14.488L145.097 13.604C143.173 13.994 141.418 14.111 139.728 14.111H138.805ZM153.934 10.107C152.101 10.107 150.775 11.238 150.775 12.876C150.775 14.527 152.101 15.658 153.934 15.658C155.767 15.658 157.08 14.527 157.08 12.876C157.08 11.238 155.767 10.107 153.934 10.107ZM153.934 11.043C155.143 11.043 156.027 11.784 156.027 12.876C156.027 13.968 155.143 14.722 153.934 14.722C152.712 14.722 151.828 13.968 151.828 12.876C151.828 11.784 152.712 11.043 153.934 11.043ZM158.614 9.249V21.027H159.693V9.249H158.614ZM150.333 18.453C152.426 18.453 155.299 18.44 157.938 17.933L157.847 17.14C155.286 17.543 152.322 17.556 150.177 17.556L150.333 18.453ZM165.124 10.276V11.173C165.124 12.772 163.915 14.228 162.147 14.8L162.693 15.658C164.669 14.982 166.021 13.24 166.021 11.173V10.276H165.124ZM165.332 10.276V11.173C165.332 13.162 166.71 14.813 168.66 15.45L169.193 14.605C167.464 14.059 166.229 12.694 166.229 11.173V10.276H165.332ZM162.446 10.029V10.9H168.881V10.029H162.446ZM170.545 9.262V15.619H171.637V9.262H170.545ZM164.058 16.204V20.858H171.637V16.204H170.571V17.595H165.124V16.204H164.058ZM165.124 18.466H170.571V19.974H165.124V18.466ZM174.403 10.211V11.095H180.708V10.211H174.403ZM174.208 15.684C176.223 15.684 178.966 15.645 181.358 15.268L181.267 14.462C178.94 14.748 176.132 14.774 174.078 14.774L174.208 15.684ZM175.56 10.835V15.086H176.6V10.835H175.56ZM178.498 10.835V15.086H179.551V10.835H178.498ZM175.664 16.971V17.855H182.424V21.014H183.516V16.971H175.664ZM182.424 9.262V16.386H183.516V9.262H182.424ZM191.664 12.057V12.954H194.823V12.057H191.664ZM188.96 9.795C187.205 9.795 185.931 10.913 185.931 12.525C185.931 14.137 187.205 15.242 188.96 15.242C190.715 15.242 191.989 14.137 191.989 12.525C191.989 10.913 190.715 9.795 188.96 9.795ZM188.96 10.705C190.117 10.705 190.949 11.446 190.949 12.525C190.949 13.591 190.117 14.345 188.96 14.345C187.803 14.345 186.971 13.591 186.971 12.525C186.971 11.446 187.803 10.705 188.96 10.705ZM194.342 9.262V15.567H195.421V9.262H194.342ZM187.894 16.152V20.858H195.421V16.152H194.355V17.634H188.973V16.152H187.894ZM188.973 18.492H194.355V19.987H188.973V18.492Z" fill="#7E8389"/>
<path d="M247.398 15.138V17.192H248.477V15.138H247.398ZM242.627 14.761V15.632H253.248V14.761H242.627ZM247.931 16.867C245.409 16.867 243.901 17.608 243.901 18.934C243.901 20.247 245.409 20.988 247.931 20.988C250.453 20.988 251.961 20.247 251.961 18.934C251.961 17.608 250.453 16.867 247.931 16.867ZM247.931 17.699C249.777 17.699 250.869 18.141 250.869 18.934C250.869 19.714 249.777 20.156 247.931 20.156C246.098 20.156 244.993 19.714 244.993 18.934C244.993 18.141 246.098 17.699 247.931 17.699ZM247.242 10.224V10.575C247.242 11.914 245.331 12.967 243.225 13.188L243.615 14.046C246.046 13.747 248.204 12.473 248.204 10.575V10.224H247.242ZM247.697 10.224V10.575C247.697 12.473 249.842 13.747 252.273 14.046L252.663 13.188C250.557 12.967 248.646 11.914 248.646 10.575V10.224H247.697ZM243.602 9.795V10.666H252.299V9.795H243.602ZM262.553 9.262V17.855H263.632V9.262H262.553ZM263.294 12.824V13.721H265.374V12.824H263.294ZM259.342 10.172V10.64C259.342 12.902 257.483 14.722 254.519 15.632L254.987 16.516C258.354 15.437 260.486 13.214 260.486 10.172H259.342ZM255 10.172V11.056H259.888V10.172H255ZM256.3 19.87V20.754H264.152V19.87H256.3ZM256.3 16.984V20.221H257.379V16.984H256.3ZM269.505 10.939V12.85C269.505 14.878 268.088 17.088 266.385 17.894L267.009 18.752C268.881 17.829 270.376 15.333 270.376 12.85V10.939H269.505ZM269.713 10.939V12.85C269.713 15.294 271.221 17.582 273.119 18.466L273.73 17.608C272.001 16.867 270.584 14.839 270.584 12.85V10.939H269.713ZM266.775 10.458V11.368H273.34V10.458H266.775ZM274.926 9.262V21.014H276.005V9.262H274.926ZM284.543 12.2V13.097H287.156V12.2H284.543ZM286.857 9.262V16.139H287.936V9.262H286.857ZM280.318 16.711V20.858H287.936V16.711H280.318ZM286.883 17.569V19.987H281.371V17.569H286.883ZM281.267 10.38V11.329C281.267 12.993 280.058 14.553 278.303 15.177L278.862 16.035C280.825 15.307 282.151 13.474 282.151 11.329V10.38H281.267ZM281.475 10.38V11.316C281.475 13.292 282.736 15.073 284.647 15.762L285.193 14.904C283.49 14.306 282.346 12.837 282.346 11.316V10.38H281.475ZM278.641 10.016V10.887H284.92V10.016H278.641ZM290.676 10.211V11.095H296.981V10.211H290.676ZM290.481 15.684C292.496 15.684 295.239 15.645 297.631 15.268L297.54 14.462C295.213 14.748 292.405 14.774 290.351 14.774L290.481 15.684ZM291.833 10.835V15.086H292.873V10.835H291.833ZM294.771 10.835V15.086H295.824V10.835H294.771ZM291.937 16.971V17.855H298.697V21.014H299.789V16.971H291.937ZM298.697 9.262V16.386H299.789V9.262H298.697ZM307.937 12.057V12.954H311.096V12.057H307.937ZM305.233 9.795C303.478 9.795 302.204 10.913 302.204 12.525C302.204 14.137 303.478 15.242 305.233 15.242C306.988 15.242 308.262 14.137 308.262 12.525C308.262 10.913 306.988 9.795 305.233 9.795ZM305.233 10.705C306.39 10.705 307.222 11.446 307.222 12.525C307.222 13.591 306.39 14.345 305.233 14.345C304.076 14.345 303.244 13.591 303.244 12.525C303.244 11.446 304.076 10.705 305.233 10.705ZM310.615 9.262V15.567H311.694V9.262H310.615ZM304.167 16.152V20.858H311.694V16.152H310.628V17.634H305.246V16.152H304.167ZM305.246 18.492H310.628V19.987H305.246V18.492Z" fill="#7E8389"/>
</svg>
