<svg width="335" height="32" viewBox="0 0 335 32" fill="none" xmlns="http://www.w3.org/2000/svg">
<rect width="335" height="32" rx="8" fill="#767680" fill-opacity="0.12"/>
<rect x="164.647" y="8" width="0.951148" height="16" rx="0.475574" fill="#3C3C43" fill-opacity="0.36"/>
<path d="M67.7915 15.047V15.931H78.4125V15.047H67.7915ZM72.5625 13.162V15.411H73.6285V13.162H72.5625ZM69.1305 12.824V13.708H77.1775V12.824H69.1305ZM69.1305 9.795V13.344H70.1965V10.666H77.0865V9.795H69.1305ZM73.0825 16.776C70.5735 16.776 69.0525 17.543 69.0525 18.882C69.0525 20.247 70.5735 21.001 73.0825 21.001C75.5915 21.001 77.1125 20.247 77.1125 18.882C77.1125 17.543 75.5915 16.776 73.0825 16.776ZM73.0825 17.608C74.9285 17.608 76.0205 18.076 76.0205 18.882C76.0205 19.701 74.9285 20.156 73.0825 20.156C71.2495 20.156 70.1445 19.701 70.1445 18.882C70.1445 18.076 71.2495 17.608 73.0825 17.608ZM82.6215 9.925V11.134C82.6215 12.928 81.4515 14.501 79.6575 15.138L80.2165 16.022C82.2315 15.268 83.5185 13.409 83.5185 11.134V9.925H82.6215ZM82.8165 9.925V11.095C82.8165 13.227 84.0775 14.956 85.9755 15.671L86.5605 14.826C84.8445 14.228 83.7005 12.759 83.7005 11.095V9.925H82.8165ZM88.2505 9.262V16.217H89.3295V9.262H88.2505ZM85.4685 16.555C83.0375 16.555 81.5425 17.374 81.5425 18.778C81.5425 20.182 83.0375 20.988 85.4685 20.988C87.8865 20.988 89.3815 20.182 89.3815 18.778C89.3815 17.374 87.8865 16.555 85.4685 16.555ZM85.4685 17.413C87.2365 17.413 88.3155 17.92 88.3155 18.778C88.3155 19.636 87.2365 20.143 85.4685 20.143C83.7005 20.143 82.6215 19.636 82.6215 18.778C82.6215 17.92 83.7005 17.413 85.4685 17.413ZM85.7025 11.745V12.642H88.4845V11.745H85.7025ZM92.0305 10.315V15.762H97.4255V10.315H92.0305ZM96.3725 11.186V14.891H93.0835V11.186H96.3725ZM99.5835 9.249V17.868H100.662V9.249H99.5835ZM100.324 12.837V13.734H102.404V12.837H100.324ZM93.3435 19.87V20.754H101.195V19.87H93.3435ZM93.3435 17.049V20.247H94.4225V17.049H93.3435Z" fill="#7E8389"/>
<path d="M238.017 9.873V11.069C238.017 12.863 236.873 14.449 235.105 15.099L235.677 15.97C237.64 15.203 238.914 13.331 238.914 11.069V9.873H238.017ZM238.212 9.873V11.147C238.212 13.188 239.499 14.93 241.384 15.632L241.956 14.787C240.266 14.202 239.096 12.733 239.096 11.147V9.873H238.212ZM243.204 9.262V16.386H244.283V9.262H243.204ZM243.984 12.291V13.201H246.025V12.291H243.984ZM240.539 16.711C238.134 16.711 236.678 17.504 236.678 18.856C236.678 20.208 238.134 20.988 240.539 20.988C242.944 20.988 244.4 20.208 244.4 18.856C244.4 17.504 242.944 16.711 240.539 16.711ZM240.539 17.569C242.281 17.569 243.347 18.037 243.347 18.856C243.347 19.675 242.281 20.143 240.539 20.143C238.797 20.143 237.731 19.675 237.731 18.856C237.731 18.037 238.797 17.569 240.539 17.569ZM247.673 10.172V11.056H252.873V10.172H247.673ZM249.441 12.798V15.736H250.507V12.798H249.441ZM252.444 10.172V10.796C252.444 11.55 252.444 12.616 252.145 14.163L253.198 14.28C253.51 12.733 253.51 11.563 253.51 10.796V10.172H252.444ZM255.109 9.262V18.115H256.188V9.262H255.109ZM255.694 13.084V13.981H257.865V13.084H255.694ZM248.765 19.87V20.754H256.565V19.87H248.765ZM248.765 17.296V20.143H249.831V17.296H248.765ZM247.075 16.243C249.142 16.243 251.95 16.191 254.394 15.762L254.316 14.982C251.937 15.307 249.051 15.359 246.958 15.359L247.075 16.243ZM258.746 20L261.554 15.398L258.72 10.9H260.293L262.438 14.306L264.44 10.9H265.987L263.166 15.463L266.026 20H264.453L262.295 16.568L260.293 20H258.746Z" fill="#7E8389"/>
</svg>
