<svg width="335" height="32" viewBox="0 0 335 32" fill="none" xmlns="http://www.w3.org/2000/svg">
<g clip-path="url(#clip0_360_1482)">
<rect width="335" height="32" rx="8" fill="#767680" fill-opacity="0.12"/>
<g filter="url(#filter0_dd_360_1482)">
<rect x="2" y="2" width="110.333" height="28.0024" rx="7" fill="#0B735F"/>
<path d="M27.7825 15.853V17.244H38.6895V15.853H27.7825ZM32.3325 16.75V21.17H34.0485V16.75H32.3325ZM33.2035 9.522C30.6425 9.522 28.8615 10.588 28.8615 12.239C28.8615 13.877 30.6425 14.93 33.2035 14.93C35.7775 14.93 37.5585 13.877 37.5585 12.239C37.5585 10.588 35.7775 9.522 33.2035 9.522ZM33.2035 10.9C34.7895 10.9 35.7775 11.368 35.7775 12.239C35.7775 13.097 34.7895 13.565 33.2035 13.565C31.6305 13.565 30.6295 13.097 30.6295 12.239C30.6295 11.368 31.6305 10.9 33.2035 10.9ZM47.9555 9.106V21.183H49.6845V9.106H47.9555ZM40.3115 16.971V18.375H41.3775C43.5745 18.375 45.3425 18.31 47.2925 17.959L47.1235 16.568C45.2125 16.893 43.5095 16.971 41.3775 16.971H40.3115ZM40.2985 10.133V11.511H44.2115V13.422H40.3115V17.491H42.0665V14.787H45.9795V10.133H40.2985ZM54.4655 10.159V10.9C54.4655 12.317 53.5945 13.773 51.5795 14.358L52.4505 15.71C54.7645 15.008 55.8825 13.058 55.8825 10.9V10.159H54.4655ZM54.8165 10.159V10.9C54.8165 12.98 55.9345 14.839 58.2095 15.502L59.0545 14.163C57.1045 13.604 56.2335 12.239 56.2335 10.9V10.159H54.8165ZM52.0475 9.769V11.134H58.5995V9.769H52.0475ZM59.8085 9.119V15.645H61.5505V9.119H59.8085ZM53.5425 16.165V21.027H61.5505V16.165H59.8345V17.257H55.2455V16.165H53.5425ZM55.2455 18.596H59.8345V19.649H55.2455V18.596ZM63.9395 9.977V11.368H70.4265V9.977H63.9395ZM63.8095 16.048C65.8895 16.048 68.5805 15.996 70.9985 15.606L70.8685 14.345C68.5415 14.618 65.7335 14.644 63.6275 14.644L63.8095 16.048ZM64.8885 11.082V15.112H66.5395V11.082H64.8885ZM67.8005 11.082V15.112H69.4775V11.082H67.8005ZM65.2135 16.971V18.349H71.6875V21.157H73.4295V16.971H65.2135ZM71.6875 9.119V16.477H73.4295V9.119H71.6875ZM81.3825 11.771V13.162H84.3985V11.771H81.3825ZM78.6265 9.613C76.8065 9.613 75.4415 10.822 75.4415 12.486C75.4415 14.163 76.8065 15.359 78.6265 15.359C80.4335 15.359 81.7985 14.163 81.7985 12.486C81.7985 10.822 80.4335 9.613 78.6265 9.613ZM78.6265 11.056C79.5105 11.056 80.1475 11.589 80.1475 12.486C80.1475 13.383 79.5105 13.929 78.6265 13.929C77.7425 13.929 77.0925 13.383 77.0925 12.486C77.0925 11.589 77.7425 11.056 78.6265 11.056ZM83.6445 9.119V15.593H85.3735V9.119H83.6445ZM77.3785 16.113V21.027H85.3735V16.113H83.6575V17.257H79.0945V16.113H77.3785ZM79.0945 18.583H83.6575V19.649H79.0945V18.583Z" fill="white"/>
<rect x="1.75" y="1.75" width="110.833" height="28.5024" rx="7.25" stroke="black" stroke-opacity="0.04" stroke-width="0.5"/>
</g>
<rect x="220.764" y="8" width="0.634102" height="16" rx="0.317051" fill="#3C3C43" fill-opacity="0.36"/>
<path d="M146.28 9.262V15.905H147.359V9.262H146.28ZM147.073 11.953V12.85H149.101V11.953H147.073ZM139.949 16.542V20.858H147.359V16.542H139.949ZM146.306 17.413V19.974H141.015V17.413H146.306ZM138.805 9.847V14.553H139.884V9.847H138.805ZM138.805 14.111V15.021H139.728C141.483 15.021 143.238 14.904 145.227 14.488L145.097 13.604C143.173 13.994 141.418 14.111 139.728 14.111H138.805ZM153.934 10.107C152.101 10.107 150.775 11.238 150.775 12.876C150.775 14.527 152.101 15.658 153.934 15.658C155.767 15.658 157.08 14.527 157.08 12.876C157.08 11.238 155.767 10.107 153.934 10.107ZM153.934 11.043C155.143 11.043 156.027 11.784 156.027 12.876C156.027 13.968 155.143 14.722 153.934 14.722C152.712 14.722 151.828 13.968 151.828 12.876C151.828 11.784 152.712 11.043 153.934 11.043ZM158.614 9.249V21.027H159.693V9.249H158.614ZM150.333 18.453C152.426 18.453 155.299 18.44 157.938 17.933L157.847 17.14C155.286 17.543 152.322 17.556 150.177 17.556L150.333 18.453ZM165.124 10.276V11.173C165.124 12.772 163.915 14.228 162.147 14.8L162.693 15.658C164.669 14.982 166.021 13.24 166.021 11.173V10.276H165.124ZM165.332 10.276V11.173C165.332 13.162 166.71 14.813 168.66 15.45L169.193 14.605C167.464 14.059 166.229 12.694 166.229 11.173V10.276H165.332ZM162.446 10.029V10.9H168.881V10.029H162.446ZM170.545 9.262V15.619H171.637V9.262H170.545ZM164.058 16.204V20.858H171.637V16.204H170.571V17.595H165.124V16.204H164.058ZM165.124 18.466H170.571V19.974H165.124V18.466ZM174.403 10.211V11.095H180.708V10.211H174.403ZM174.208 15.684C176.223 15.684 178.966 15.645 181.358 15.268L181.267 14.462C178.94 14.748 176.132 14.774 174.078 14.774L174.208 15.684ZM175.56 10.835V15.086H176.6V10.835H175.56ZM178.498 10.835V15.086H179.551V10.835H178.498ZM175.664 16.971V17.855H182.424V21.014H183.516V16.971H175.664ZM182.424 9.262V16.386H183.516V9.262H182.424ZM191.664 12.057V12.954H194.823V12.057H191.664ZM188.96 9.795C187.205 9.795 185.931 10.913 185.931 12.525C185.931 14.137 187.205 15.242 188.96 15.242C190.715 15.242 191.989 14.137 191.989 12.525C191.989 10.913 190.715 9.795 188.96 9.795ZM188.96 10.705C190.117 10.705 190.949 11.446 190.949 12.525C190.949 13.591 190.117 14.345 188.96 14.345C187.803 14.345 186.971 13.591 186.971 12.525C186.971 11.446 187.803 10.705 188.96 10.705ZM194.342 9.262V15.567H195.421V9.262H194.342ZM187.894 16.152V20.858H195.421V16.152H194.355V17.634H188.973V16.152H187.894ZM188.973 18.492H194.355V19.987H188.973V18.492Z" fill="#7E8389"/>
<path d="M247.398 15.138V17.192H248.477V15.138H247.398ZM242.627 14.761V15.632H253.248V14.761H242.627ZM247.931 16.867C245.409 16.867 243.901 17.608 243.901 18.934C243.901 20.247 245.409 20.988 247.931 20.988C250.453 20.988 251.961 20.247 251.961 18.934C251.961 17.608 250.453 16.867 247.931 16.867ZM247.931 17.699C249.777 17.699 250.869 18.141 250.869 18.934C250.869 19.714 249.777 20.156 247.931 20.156C246.098 20.156 244.993 19.714 244.993 18.934C244.993 18.141 246.098 17.699 247.931 17.699ZM247.242 10.224V10.575C247.242 11.914 245.331 12.967 243.225 13.188L243.615 14.046C246.046 13.747 248.204 12.473 248.204 10.575V10.224H247.242ZM247.697 10.224V10.575C247.697 12.473 249.842 13.747 252.273 14.046L252.663 13.188C250.557 12.967 248.646 11.914 248.646 10.575V10.224H247.697ZM243.602 9.795V10.666H252.299V9.795H243.602ZM262.553 9.262V17.855H263.632V9.262H262.553ZM263.294 12.824V13.721H265.374V12.824H263.294ZM259.342 10.172V10.64C259.342 12.902 257.483 14.722 254.519 15.632L254.987 16.516C258.354 15.437 260.486 13.214 260.486 10.172H259.342ZM255 10.172V11.056H259.888V10.172H255ZM256.3 19.87V20.754H264.152V19.87H256.3ZM256.3 16.984V20.221H257.379V16.984H256.3ZM269.505 10.939V12.85C269.505 14.878 268.088 17.088 266.385 17.894L267.009 18.752C268.881 17.829 270.376 15.333 270.376 12.85V10.939H269.505ZM269.713 10.939V12.85C269.713 15.294 271.221 17.582 273.119 18.466L273.73 17.608C272.001 16.867 270.584 14.839 270.584 12.85V10.939H269.713ZM266.775 10.458V11.368H273.34V10.458H266.775ZM274.926 9.262V21.014H276.005V9.262H274.926ZM284.543 12.2V13.097H287.156V12.2H284.543ZM286.857 9.262V16.139H287.936V9.262H286.857ZM280.318 16.711V20.858H287.936V16.711H280.318ZM286.883 17.569V19.987H281.371V17.569H286.883ZM281.267 10.38V11.329C281.267 12.993 280.058 14.553 278.303 15.177L278.862 16.035C280.825 15.307 282.151 13.474 282.151 11.329V10.38H281.267ZM281.475 10.38V11.316C281.475 13.292 282.736 15.073 284.647 15.762L285.193 14.904C283.49 14.306 282.346 12.837 282.346 11.316V10.38H281.475ZM278.641 10.016V10.887H284.92V10.016H278.641ZM290.676 10.211V11.095H296.981V10.211H290.676ZM290.481 15.684C292.496 15.684 295.239 15.645 297.631 15.268L297.54 14.462C295.213 14.748 292.405 14.774 290.351 14.774L290.481 15.684ZM291.833 10.835V15.086H292.873V10.835H291.833ZM294.771 10.835V15.086H295.824V10.835H294.771ZM291.937 16.971V17.855H298.697V21.014H299.789V16.971H291.937ZM298.697 9.262V16.386H299.789V9.262H298.697ZM307.937 12.057V12.954H311.096V12.057H307.937ZM305.233 9.795C303.478 9.795 302.204 10.913 302.204 12.525C302.204 14.137 303.478 15.242 305.233 15.242C306.988 15.242 308.262 14.137 308.262 12.525C308.262 10.913 306.988 9.795 305.233 9.795ZM305.233 10.705C306.39 10.705 307.222 11.446 307.222 12.525C307.222 13.591 306.39 14.345 305.233 14.345C304.076 14.345 303.244 13.591 303.244 12.525C303.244 11.446 304.076 10.705 305.233 10.705ZM310.615 9.262V15.567H311.694V9.262H310.615ZM304.167 16.152V20.858H311.694V16.152H310.628V17.634H305.246V16.152H304.167ZM305.246 18.492H310.628V19.987H305.246V18.492Z" fill="#7E8389"/>
</g>
<defs>
<filter id="filter0_dd_360_1482" x="-6.5" y="-3.5" width="127.333" height="45.0023" filterUnits="userSpaceOnUse" color-interpolation-filters="sRGB">
<feFlood flood-opacity="0" result="BackgroundImageFix"/>
<feColorMatrix in="SourceAlpha" type="matrix" values="0 0 0 0 0 0 0 0 0 0 0 0 0 0 0 0 0 0 127 0" result="hardAlpha"/>
<feOffset dy="3"/>
<feGaussianBlur stdDeviation="0.5"/>
<feColorMatrix type="matrix" values="0 0 0 0 0 0 0 0 0 0 0 0 0 0 0 0 0 0 0.04 0"/>
<feBlend mode="normal" in2="BackgroundImageFix" result="effect1_dropShadow_360_1482"/>
<feColorMatrix in="SourceAlpha" type="matrix" values="0 0 0 0 0 0 0 0 0 0 0 0 0 0 0 0 0 0 127 0" result="hardAlpha"/>
<feOffset dy="3"/>
<feGaussianBlur stdDeviation="4"/>
<feColorMatrix type="matrix" values="0 0 0 0 0 0 0 0 0 0 0 0 0 0 0 0 0 0 0.12 0"/>
<feBlend mode="normal" in2="effect1_dropShadow_360_1482" result="effect2_dropShadow_360_1482"/>
<feBlend mode="normal" in="SourceGraphic" in2="effect2_dropShadow_360_1482" result="shape"/>
</filter>
<clipPath id="clip0_360_1482">
<rect width="335" height="32" rx="8" fill="white"/>
</clipPath>
</defs>
</svg>
