<svg width="335" height="32" viewBox="0 0 335 32" fill="none" xmlns="http://www.w3.org/2000/svg">
<g clip-path="url(#clip0_360_1483)">
<rect width="335" height="32" rx="8" fill="#767680" fill-opacity="0.12"/>
<rect x="110.431" y="8" width="0.634102" height="16" rx="0.317051" fill="#3C3C43" fill-opacity="0.36"/>
<path d="M27.8995 15.996V16.88H38.5595V15.996H27.8995ZM32.6575 16.542V21.014H33.7235V16.542H32.6575ZM33.2035 9.73C30.7595 9.73 29.0955 10.731 29.0955 12.304C29.0955 13.877 30.7595 14.878 33.2035 14.878C35.6605 14.878 37.3115 13.877 37.3115 12.304C37.3115 10.731 35.6605 9.73 33.2035 9.73ZM33.2035 10.601C34.9975 10.601 36.2065 11.264 36.2065 12.304C36.2065 13.344 34.9975 14.007 33.2035 14.007C31.4095 14.007 30.1875 13.344 30.1875 12.304C30.1875 11.264 31.4095 10.601 33.2035 10.601ZM48.3455 9.249V21.027H49.4245V9.249H48.3455ZM40.4675 17.296V18.193H41.4425C43.4575 18.193 45.2255 18.115 47.3575 17.764L47.2405 16.88C45.1605 17.218 43.4055 17.296 41.4425 17.296H40.4675ZM40.4415 10.354V11.238H44.7835V13.669H40.4675V17.634H41.5465V14.553H45.8755V10.354H40.4415ZM54.7905 10.276V11.173C54.7905 12.772 53.5815 14.228 51.8135 14.8L52.3595 15.658C54.3355 14.982 55.6875 13.24 55.6875 11.173V10.276H54.7905ZM54.9985 10.276V11.173C54.9985 13.162 56.3765 14.813 58.3265 15.45L58.8595 14.605C57.1305 14.059 55.8955 12.694 55.8955 11.173V10.276H54.9985ZM52.1125 10.029V10.9H58.5475V10.029H52.1125ZM60.2115 9.262V15.619H61.3035V9.262H60.2115ZM53.7245 16.204V20.858H61.3035V16.204H60.2375V17.595H54.7905V16.204H53.7245ZM54.7905 18.466H60.2375V19.974H54.7905V18.466ZM64.0695 10.211V11.095H70.3745V10.211H64.0695ZM63.8745 15.684C65.8895 15.684 68.6325 15.645 71.0245 15.268L70.9335 14.462C68.6065 14.748 65.7985 14.774 63.7445 14.774L63.8745 15.684ZM65.2265 10.835V15.086H66.2665V10.835H65.2265ZM68.1645 10.835V15.086H69.2175V10.835H68.1645ZM65.3305 16.971V17.855H72.0905V21.014H73.1825V16.971H65.3305ZM72.0905 9.262V16.386H73.1825V9.262H72.0905ZM81.3305 12.057V12.954H84.4895V12.057H81.3305ZM78.6265 9.795C76.8715 9.795 75.5975 10.913 75.5975 12.525C75.5975 14.137 76.8715 15.242 78.6265 15.242C80.3815 15.242 81.6555 14.137 81.6555 12.525C81.6555 10.913 80.3815 9.795 78.6265 9.795ZM78.6265 10.705C79.7835 10.705 80.6155 11.446 80.6155 12.525C80.6155 13.591 79.7835 14.345 78.6265 14.345C77.4695 14.345 76.6375 13.591 76.6375 12.525C76.6375 11.446 77.4695 10.705 78.6265 10.705ZM84.0085 9.262V15.567H85.0875V9.262H84.0085ZM77.5605 16.152V20.858H85.0875V16.152H84.0215V17.634H78.6395V16.152H77.5605ZM78.6395 18.492H84.0215V19.987H78.6395V18.492Z" fill="#7E8389"/>
<g filter="url(#filter0_dd_360_1483)">
<rect x="112.333" y="2" width="110.333" height="28.0024" rx="7" fill="#0B735F"/>
<path d="M145.864 9.119V15.905H147.593V9.119H145.864ZM147.125 11.654V13.058H149.192V11.654H147.125ZM139.754 16.451V21.027H147.593V16.451H139.754ZM145.903 17.803V19.662H141.457V17.803H145.903ZM138.597 9.691V14.618H140.326V9.691H138.597ZM138.597 13.877V15.294H139.611C141.314 15.294 143.16 15.19 145.123 14.787L144.928 13.396C143.03 13.76 141.249 13.877 139.611 13.877H138.597ZM153.869 9.912C151.984 9.912 150.541 11.147 150.541 12.876C150.541 14.618 151.984 15.853 153.869 15.853C155.767 15.853 157.184 14.618 157.184 12.876C157.184 11.147 155.767 9.912 153.869 9.912ZM153.869 11.394C154.792 11.394 155.494 11.94 155.494 12.876C155.494 13.825 154.792 14.371 153.869 14.371C152.946 14.371 152.244 13.825 152.244 12.876C152.244 11.94 152.946 11.394 153.869 11.394ZM158.315 9.106V21.183H160.044V9.106H158.315ZM150.255 18.739C152.335 18.739 155.169 18.713 157.782 18.193L157.652 16.945C155.117 17.322 152.166 17.348 150.047 17.348L150.255 18.739ZM164.799 10.159V10.9C164.799 12.317 163.928 13.773 161.913 14.358L162.784 15.71C165.098 15.008 166.216 13.058 166.216 10.9V10.159H164.799ZM165.15 10.159V10.9C165.15 12.98 166.268 14.839 168.543 15.502L169.388 14.163C167.438 13.604 166.567 12.239 166.567 10.9V10.159H165.15ZM162.381 9.769V11.134H168.933V9.769H162.381ZM170.142 9.119V15.645H171.884V9.119H170.142ZM163.876 16.165V21.027H171.884V16.165H170.168V17.257H165.579V16.165H163.876ZM165.579 18.596H170.168V19.649H165.579V18.596ZM174.273 9.977V11.368H180.76V9.977H174.273ZM174.143 16.048C176.223 16.048 178.914 15.996 181.332 15.606L181.202 14.345C178.875 14.618 176.067 14.644 173.961 14.644L174.143 16.048ZM175.222 11.082V15.112H176.873V11.082H175.222ZM178.134 11.082V15.112H179.811V11.082H178.134ZM175.547 16.971V18.349H182.021V21.157H183.763V16.971H175.547ZM182.021 9.119V16.477H183.763V9.119H182.021ZM191.716 11.771V13.162H194.732V11.771H191.716ZM188.96 9.613C187.14 9.613 185.775 10.822 185.775 12.486C185.775 14.163 187.14 15.359 188.96 15.359C190.767 15.359 192.132 14.163 192.132 12.486C192.132 10.822 190.767 9.613 188.96 9.613ZM188.96 11.056C189.844 11.056 190.481 11.589 190.481 12.486C190.481 13.383 189.844 13.929 188.96 13.929C188.076 13.929 187.426 13.383 187.426 12.486C187.426 11.589 188.076 11.056 188.96 11.056ZM193.978 9.119V15.593H195.707V9.119H193.978ZM187.712 16.113V21.027H195.707V16.113H193.991V17.257H189.428V16.113H187.712ZM189.428 18.583H193.991V19.649H189.428V18.583Z" fill="white"/>
<rect x="112.083" y="1.75" width="110.833" height="28.5024" rx="7.25" stroke="black" stroke-opacity="0.04" stroke-width="0.5"/>
</g>
<path d="M247.398 15.138V17.192H248.477V15.138H247.398ZM242.627 14.761V15.632H253.248V14.761H242.627ZM247.931 16.867C245.409 16.867 243.901 17.608 243.901 18.934C243.901 20.247 245.409 20.988 247.931 20.988C250.453 20.988 251.961 20.247 251.961 18.934C251.961 17.608 250.453 16.867 247.931 16.867ZM247.931 17.699C249.777 17.699 250.869 18.141 250.869 18.934C250.869 19.714 249.777 20.156 247.931 20.156C246.098 20.156 244.993 19.714 244.993 18.934C244.993 18.141 246.098 17.699 247.931 17.699ZM247.242 10.224V10.575C247.242 11.914 245.331 12.967 243.225 13.188L243.615 14.046C246.046 13.747 248.204 12.473 248.204 10.575V10.224H247.242ZM247.697 10.224V10.575C247.697 12.473 249.842 13.747 252.273 14.046L252.663 13.188C250.557 12.967 248.646 11.914 248.646 10.575V10.224H247.697ZM243.602 9.795V10.666H252.299V9.795H243.602ZM262.553 9.262V17.855H263.632V9.262H262.553ZM263.294 12.824V13.721H265.374V12.824H263.294ZM259.342 10.172V10.64C259.342 12.902 257.483 14.722 254.519 15.632L254.987 16.516C258.354 15.437 260.486 13.214 260.486 10.172H259.342ZM255 10.172V11.056H259.888V10.172H255ZM256.3 19.87V20.754H264.152V19.87H256.3ZM256.3 16.984V20.221H257.379V16.984H256.3ZM269.505 10.939V12.85C269.505 14.878 268.088 17.088 266.385 17.894L267.009 18.752C268.881 17.829 270.376 15.333 270.376 12.85V10.939H269.505ZM269.713 10.939V12.85C269.713 15.294 271.221 17.582 273.119 18.466L273.73 17.608C272.001 16.867 270.584 14.839 270.584 12.85V10.939H269.713ZM266.775 10.458V11.368H273.34V10.458H266.775ZM274.926 9.262V21.014H276.005V9.262H274.926ZM284.543 12.2V13.097H287.156V12.2H284.543ZM286.857 9.262V16.139H287.936V9.262H286.857ZM280.318 16.711V20.858H287.936V16.711H280.318ZM286.883 17.569V19.987H281.371V17.569H286.883ZM281.267 10.38V11.329C281.267 12.993 280.058 14.553 278.303 15.177L278.862 16.035C280.825 15.307 282.151 13.474 282.151 11.329V10.38H281.267ZM281.475 10.38V11.316C281.475 13.292 282.736 15.073 284.647 15.762L285.193 14.904C283.49 14.306 282.346 12.837 282.346 11.316V10.38H281.475ZM278.641 10.016V10.887H284.92V10.016H278.641ZM290.676 10.211V11.095H296.981V10.211H290.676ZM290.481 15.684C292.496 15.684 295.239 15.645 297.631 15.268L297.54 14.462C295.213 14.748 292.405 14.774 290.351 14.774L290.481 15.684ZM291.833 10.835V15.086H292.873V10.835H291.833ZM294.771 10.835V15.086H295.824V10.835H294.771ZM291.937 16.971V17.855H298.697V21.014H299.789V16.971H291.937ZM298.697 9.262V16.386H299.789V9.262H298.697ZM307.937 12.057V12.954H311.096V12.057H307.937ZM305.233 9.795C303.478 9.795 302.204 10.913 302.204 12.525C302.204 14.137 303.478 15.242 305.233 15.242C306.988 15.242 308.262 14.137 308.262 12.525C308.262 10.913 306.988 9.795 305.233 9.795ZM305.233 10.705C306.39 10.705 307.222 11.446 307.222 12.525C307.222 13.591 306.39 14.345 305.233 14.345C304.076 14.345 303.244 13.591 303.244 12.525C303.244 11.446 304.076 10.705 305.233 10.705ZM310.615 9.262V15.567H311.694V9.262H310.615ZM304.167 16.152V20.858H311.694V16.152H310.628V17.634H305.246V16.152H304.167ZM305.246 18.492H310.628V19.987H305.246V18.492Z" fill="#7E8389"/>
</g>
<defs>
<filter id="filter0_dd_360_1483" x="103.833" y="-3.5" width="127.333" height="45.0023" filterUnits="userSpaceOnUse" color-interpolation-filters="sRGB">
<feFlood flood-opacity="0" result="BackgroundImageFix"/>
<feColorMatrix in="SourceAlpha" type="matrix" values="0 0 0 0 0 0 0 0 0 0 0 0 0 0 0 0 0 0 127 0" result="hardAlpha"/>
<feOffset dy="3"/>
<feGaussianBlur stdDeviation="0.5"/>
<feColorMatrix type="matrix" values="0 0 0 0 0 0 0 0 0 0 0 0 0 0 0 0 0 0 0.04 0"/>
<feBlend mode="normal" in2="BackgroundImageFix" result="effect1_dropShadow_360_1483"/>
<feColorMatrix in="SourceAlpha" type="matrix" values="0 0 0 0 0 0 0 0 0 0 0 0 0 0 0 0 0 0 127 0" result="hardAlpha"/>
<feOffset dy="3"/>
<feGaussianBlur stdDeviation="4"/>
<feColorMatrix type="matrix" values="0 0 0 0 0 0 0 0 0 0 0 0 0 0 0 0 0 0 0.12 0"/>
<feBlend mode="normal" in2="effect1_dropShadow_360_1483" result="effect2_dropShadow_360_1483"/>
<feBlend mode="normal" in="SourceGraphic" in2="effect2_dropShadow_360_1483" result="shape"/>
</filter>
<clipPath id="clip0_360_1483">
<rect width="335" height="32" rx="8" fill="white"/>
</clipPath>
</defs>
</svg>
