<svg width="335" height="32" viewBox="0 0 335 32" fill="none" xmlns="http://www.w3.org/2000/svg">
<g clip-path="url(#clip0_360_1481)">
<rect width="335" height="32" rx="8" fill="#767680" fill-opacity="0.12"/>
<g filter="url(#filter0_dd_360_1481)">
<rect x="2" y="2" width="165.5" height="28.0024" rx="7" fill="#0B735F"/>
<path d="M67.6745 14.774V16.152H78.5685V14.774H67.6745ZM72.2635 12.967V15.307H73.9795V12.967H72.2635ZM68.9875 12.421V13.786H77.3335V12.421H68.9875ZM68.9875 9.639V13.292H70.7035V10.991H77.2685V9.639H68.9875ZM73.0825 16.75C70.4825 16.75 68.8965 17.543 68.8965 18.96C68.8965 20.377 70.4825 21.17 73.0825 21.17C75.6825 21.17 77.2555 20.377 77.2555 18.96C77.2555 17.543 75.6825 16.75 73.0825 16.75ZM73.0825 18.05C74.6945 18.05 75.5135 18.349 75.5135 18.96C75.5135 19.584 74.6945 19.857 73.0825 19.857C71.4705 19.857 70.6515 19.584 70.6515 18.96C70.6515 18.349 71.4705 18.05 73.0825 18.05ZM82.3355 9.743V10.822C82.3355 12.473 81.4905 14.098 79.4365 14.761L80.3335 16.152C82.6995 15.359 83.7785 13.24 83.7785 10.822V9.743H82.3355ZM82.6995 9.743V10.744C82.6995 13.084 83.6615 15.021 85.8845 15.788L86.7815 14.436C84.8705 13.825 84.0905 12.343 84.0905 10.744V9.743H82.6995ZM87.8865 9.119V16.165H89.6155V9.119H87.8865ZM85.5335 16.477C82.9855 16.477 81.4125 17.348 81.4125 18.817C81.4125 20.299 82.9855 21.157 85.5335 21.157C88.0815 21.157 89.6545 20.299 89.6545 18.817C89.6545 17.348 88.0815 16.477 85.5335 16.477ZM85.5335 17.816C87.1065 17.816 87.9385 18.141 87.9385 18.817C87.9385 19.493 87.1065 19.831 85.5335 19.831C83.9735 19.831 83.1415 19.493 83.1415 18.817C83.1415 18.141 83.9735 17.816 85.5335 17.816ZM85.6895 11.303V12.707H88.1335V11.303H85.6895ZM91.7705 10.107V15.918H97.5035V10.107H91.7705ZM95.8005 11.472V14.553H93.4735V11.472H95.8005ZM99.1675 9.119V17.894H100.896V9.119H99.1675ZM100.402 12.59V14.007H102.495V12.59H100.402ZM93.1355 19.571V20.949H101.325V19.571H93.1355ZM93.1355 17.036V20.26H94.8645V17.036H93.1355Z" fill="white"/>
<rect x="1.75" y="1.75" width="166" height="28.5024" rx="7.25" stroke="black" stroke-opacity="0.04" stroke-width="0.5"/>
</g>
<path d="M238.208 9.873V11.069C238.208 12.863 237.064 14.449 235.296 15.099L235.868 15.97C237.831 15.203 239.105 13.331 239.105 11.069V9.873H238.208ZM238.403 9.873V11.147C238.403 13.188 239.69 14.93 241.575 15.632L242.147 14.787C240.457 14.202 239.287 12.733 239.287 11.147V9.873H238.403ZM243.395 9.262V16.386H244.474V9.262H243.395ZM244.175 12.291V13.201H246.216V12.291H244.175ZM240.73 16.711C238.325 16.711 236.869 17.504 236.869 18.856C236.869 20.208 238.325 20.988 240.73 20.988C243.135 20.988 244.591 20.208 244.591 18.856C244.591 17.504 243.135 16.711 240.73 16.711ZM240.73 17.569C242.472 17.569 243.538 18.037 243.538 18.856C243.538 19.675 242.472 20.143 240.73 20.143C238.988 20.143 237.922 19.675 237.922 18.856C237.922 18.037 238.988 17.569 240.73 17.569ZM247.864 10.172V11.056H253.064V10.172H247.864ZM249.632 12.798V15.736H250.698V12.798H249.632ZM252.635 10.172V10.796C252.635 11.55 252.635 12.616 252.336 14.163L253.389 14.28C253.701 12.733 253.701 11.563 253.701 10.796V10.172H252.635ZM255.3 9.262V18.115H256.379V9.262H255.3ZM255.885 13.084V13.981H258.056V13.084H255.885ZM248.956 19.87V20.754H256.756V19.87H248.956ZM248.956 17.296V20.143H250.022V17.296H248.956ZM247.266 16.243C249.333 16.243 252.141 16.191 254.585 15.762L254.507 14.982C252.128 15.307 249.242 15.359 247.149 15.359L247.266 16.243ZM258.963 20L261.745 15.411L258.963 10.9H260.198L262.434 14.54L264.566 10.9H265.788L263.006 15.463L265.801 20H264.566L262.317 16.347L260.198 20H258.963Z" fill="#7E8389"/>
</g>
<defs>
<filter id="filter0_dd_360_1481" x="-6.5" y="-3.5" width="182.5" height="45.0023" filterUnits="userSpaceOnUse" color-interpolation-filters="sRGB">
<feFlood flood-opacity="0" result="BackgroundImageFix"/>
<feColorMatrix in="SourceAlpha" type="matrix" values="0 0 0 0 0 0 0 0 0 0 0 0 0 0 0 0 0 0 127 0" result="hardAlpha"/>
<feOffset dy="3"/>
<feGaussianBlur stdDeviation="0.5"/>
<feColorMatrix type="matrix" values="0 0 0 0 0 0 0 0 0 0 0 0 0 0 0 0 0 0 0.04 0"/>
<feBlend mode="normal" in2="BackgroundImageFix" result="effect1_dropShadow_360_1481"/>
<feColorMatrix in="SourceAlpha" type="matrix" values="0 0 0 0 0 0 0 0 0 0 0 0 0 0 0 0 0 0 127 0" result="hardAlpha"/>
<feOffset dy="3"/>
<feGaussianBlur stdDeviation="4"/>
<feColorMatrix type="matrix" values="0 0 0 0 0 0 0 0 0 0 0 0 0 0 0 0 0 0 0.12 0"/>
<feBlend mode="normal" in2="effect1_dropShadow_360_1481" result="effect2_dropShadow_360_1481"/>
<feBlend mode="normal" in="SourceGraphic" in2="effect2_dropShadow_360_1481" result="shape"/>
</filter>
<clipPath id="clip0_360_1481">
<rect width="335" height="32" rx="8" fill="white"/>
</clipPath>
</defs>
</svg>
