<svg width="335" height="32" viewBox="0 0 335 32" fill="none" xmlns="http://www.w3.org/2000/svg">
<g clip-path="url(#clip0_360_1480)">
<rect width="335" height="32" rx="8" fill="#767680" fill-opacity="0.12"/>
<path d="M67.7915 15.047V15.931H78.4125V15.047H67.7915ZM72.5625 13.162V15.411H73.6285V13.162H72.5625ZM69.1305 12.824V13.708H77.1775V12.824H69.1305ZM69.1305 9.795V13.344H70.1965V10.666H77.0865V9.795H69.1305ZM73.0825 16.776C70.5735 16.776 69.0525 17.543 69.0525 18.882C69.0525 20.247 70.5735 21.001 73.0825 21.001C75.5915 21.001 77.1125 20.247 77.1125 18.882C77.1125 17.543 75.5915 16.776 73.0825 16.776ZM73.0825 17.608C74.9285 17.608 76.0205 18.076 76.0205 18.882C76.0205 19.701 74.9285 20.156 73.0825 20.156C71.2495 20.156 70.1445 19.701 70.1445 18.882C70.1445 18.076 71.2495 17.608 73.0825 17.608ZM82.6215 9.925V11.134C82.6215 12.928 81.4515 14.501 79.6575 15.138L80.2165 16.022C82.2315 15.268 83.5185 13.409 83.5185 11.134V9.925H82.6215ZM82.8165 9.925V11.095C82.8165 13.227 84.0775 14.956 85.9755 15.671L86.5605 14.826C84.8445 14.228 83.7005 12.759 83.7005 11.095V9.925H82.8165ZM88.2505 9.262V16.217H89.3295V9.262H88.2505ZM85.4685 16.555C83.0375 16.555 81.5425 17.374 81.5425 18.778C81.5425 20.182 83.0375 20.988 85.4685 20.988C87.8865 20.988 89.3815 20.182 89.3815 18.778C89.3815 17.374 87.8865 16.555 85.4685 16.555ZM85.4685 17.413C87.2365 17.413 88.3155 17.92 88.3155 18.778C88.3155 19.636 87.2365 20.143 85.4685 20.143C83.7005 20.143 82.6215 19.636 82.6215 18.778C82.6215 17.92 83.7005 17.413 85.4685 17.413ZM85.7025 11.745V12.642H88.4845V11.745H85.7025ZM92.0305 10.315V15.762H97.4255V10.315H92.0305ZM96.3725 11.186V14.891H93.0835V11.186H96.3725ZM99.5835 9.249V17.868H100.662V9.249H99.5835ZM100.324 12.837V13.734H102.404V12.837H100.324ZM93.3435 19.87V20.754H101.195V19.87H93.3435ZM93.3435 17.049V20.247H94.4225V17.049H93.3435Z" fill="#7E8389"/>
<g filter="url(#filter0_dd_360_1480)">
<rect x="167.5" y="2" width="165.5" height="28.0024" rx="7" fill="#0B735F"/>
<path d="M237.495 9.769V10.835C237.495 12.473 236.676 14.085 234.661 14.761L235.584 16.126C237.872 15.333 238.912 13.227 238.912 10.835V9.769H237.495ZM237.846 9.769V11.004C237.846 13.175 238.873 15.047 241.044 15.775L241.941 14.436C240.056 13.851 239.25 12.447 239.25 11.004V9.769H237.846ZM242.604 9.119V16.23H244.333V9.119H242.604ZM243.852 11.901V13.331H245.932V11.901H243.852ZM240.407 16.503C237.898 16.503 236.325 17.374 236.325 18.83C236.325 20.299 237.898 21.157 240.407 21.157C242.903 21.157 244.476 20.299 244.476 18.83C244.476 17.374 242.903 16.503 240.407 16.503ZM240.407 17.842C241.941 17.842 242.76 18.167 242.76 18.83C242.76 19.506 241.941 19.818 240.407 19.818C238.873 19.818 238.041 19.506 238.041 18.83C238.041 18.167 238.873 17.842 240.407 17.842ZM247.268 9.99V11.381H252.416V9.99H247.268ZM248.75 12.798V15.814H250.466V12.798H248.75ZM251.74 9.99V10.744C251.74 11.576 251.74 12.616 251.48 14.098L253.157 14.28C253.443 12.785 253.443 11.589 253.443 10.744V9.99H251.74ZM254.613 9.119V18.128H256.355V9.119H254.613ZM255.666 12.785V14.202H257.785V12.785H255.666ZM248.321 19.571V20.949H256.732V19.571H248.321ZM248.321 17.322V20H250.05V17.322H248.321ZM246.722 16.516C248.789 16.516 251.584 16.464 254.067 15.996L253.963 14.774C251.545 15.112 248.646 15.151 246.566 15.151L246.722 16.516ZM258.536 20L261.383 15.398L258.497 10.9H260.408L262.449 14.072L264.321 10.9H266.193L263.346 15.476L266.258 20H264.347L262.28 16.789L260.408 20H258.536Z" fill="white"/>
<rect x="167.25" y="1.75" width="166" height="28.5024" rx="7.25" stroke="black" stroke-opacity="0.04" stroke-width="0.5"/>
</g>
</g>
<defs>
<filter id="filter0_dd_360_1480" x="159" y="-3.5" width="182.5" height="45.0023" filterUnits="userSpaceOnUse" color-interpolation-filters="sRGB">
<feFlood flood-opacity="0" result="BackgroundImageFix"/>
<feColorMatrix in="SourceAlpha" type="matrix" values="0 0 0 0 0 0 0 0 0 0 0 0 0 0 0 0 0 0 127 0" result="hardAlpha"/>
<feOffset dy="3"/>
<feGaussianBlur stdDeviation="0.5"/>
<feColorMatrix type="matrix" values="0 0 0 0 0 0 0 0 0 0 0 0 0 0 0 0 0 0 0.04 0"/>
<feBlend mode="normal" in2="BackgroundImageFix" result="effect1_dropShadow_360_1480"/>
<feColorMatrix in="SourceAlpha" type="matrix" values="0 0 0 0 0 0 0 0 0 0 0 0 0 0 0 0 0 0 127 0" result="hardAlpha"/>
<feOffset dy="3"/>
<feGaussianBlur stdDeviation="4"/>
<feColorMatrix type="matrix" values="0 0 0 0 0 0 0 0 0 0 0 0 0 0 0 0 0 0 0.12 0"/>
<feBlend mode="normal" in2="effect1_dropShadow_360_1480" result="effect2_dropShadow_360_1480"/>
<feBlend mode="normal" in="SourceGraphic" in2="effect2_dropShadow_360_1480" result="shape"/>
</filter>
<clipPath id="clip0_360_1480">
<rect width="335" height="32" rx="8" fill="white"/>
</clipPath>
</defs>
</svg>
