<svg width="335" height="32" viewBox="0 0 335 32" fill="none" xmlns="http://www.w3.org/2000/svg">
<g clip-path="url(#clip0_360_1484)">
<rect width="335" height="32" rx="8" fill="#767680" fill-opacity="0.12"/>
<rect x="110.431" y="8" width="0.634102" height="16" rx="0.317051" fill="#3C3C43" fill-opacity="0.36"/>
<path d="M27.8995 15.996V16.88H38.5595V15.996H27.8995ZM32.6575 16.542V21.014H33.7235V16.542H32.6575ZM33.2035 9.73C30.7595 9.73 29.0955 10.731 29.0955 12.304C29.0955 13.877 30.7595 14.878 33.2035 14.878C35.6605 14.878 37.3115 13.877 37.3115 12.304C37.3115 10.731 35.6605 9.73 33.2035 9.73ZM33.2035 10.601C34.9975 10.601 36.2065 11.264 36.2065 12.304C36.2065 13.344 34.9975 14.007 33.2035 14.007C31.4095 14.007 30.1875 13.344 30.1875 12.304C30.1875 11.264 31.4095 10.601 33.2035 10.601ZM48.3455 9.249V21.027H49.4245V9.249H48.3455ZM40.4675 17.296V18.193H41.4425C43.4575 18.193 45.2255 18.115 47.3575 17.764L47.2405 16.88C45.1605 17.218 43.4055 17.296 41.4425 17.296H40.4675ZM40.4415 10.354V11.238H44.7835V13.669H40.4675V17.634H41.5465V14.553H45.8755V10.354H40.4415ZM54.7905 10.276V11.173C54.7905 12.772 53.5815 14.228 51.8135 14.8L52.3595 15.658C54.3355 14.982 55.6875 13.24 55.6875 11.173V10.276H54.7905ZM54.9985 10.276V11.173C54.9985 13.162 56.3765 14.813 58.3265 15.45L58.8595 14.605C57.1305 14.059 55.8955 12.694 55.8955 11.173V10.276H54.9985ZM52.1125 10.029V10.9H58.5475V10.029H52.1125ZM60.2115 9.262V15.619H61.3035V9.262H60.2115ZM53.7245 16.204V20.858H61.3035V16.204H60.2375V17.595H54.7905V16.204H53.7245ZM54.7905 18.466H60.2375V19.974H54.7905V18.466ZM64.0695 10.211V11.095H70.3745V10.211H64.0695ZM63.8745 15.684C65.8895 15.684 68.6325 15.645 71.0245 15.268L70.9335 14.462C68.6065 14.748 65.7985 14.774 63.7445 14.774L63.8745 15.684ZM65.2265 10.835V15.086H66.2665V10.835H65.2265ZM68.1645 10.835V15.086H69.2175V10.835H68.1645ZM65.3305 16.971V17.855H72.0905V21.014H73.1825V16.971H65.3305ZM72.0905 9.262V16.386H73.1825V9.262H72.0905ZM81.3305 12.057V12.954H84.4895V12.057H81.3305ZM78.6265 9.795C76.8715 9.795 75.5975 10.913 75.5975 12.525C75.5975 14.137 76.8715 15.242 78.6265 15.242C80.3815 15.242 81.6555 14.137 81.6555 12.525C81.6555 10.913 80.3815 9.795 78.6265 9.795ZM78.6265 10.705C79.7835 10.705 80.6155 11.446 80.6155 12.525C80.6155 13.591 79.7835 14.345 78.6265 14.345C77.4695 14.345 76.6375 13.591 76.6375 12.525C76.6375 11.446 77.4695 10.705 78.6265 10.705ZM84.0085 9.262V15.567H85.0875V9.262H84.0085ZM77.5605 16.152V20.858H85.0875V16.152H84.0215V17.634H78.6395V16.152H77.5605ZM78.6395 18.492H84.0215V19.987H78.6395V18.492Z" fill="#7E8389"/>
<path d="M146.28 9.262V15.905H147.359V9.262H146.28ZM147.073 11.953V12.85H149.101V11.953H147.073ZM139.949 16.542V20.858H147.359V16.542H139.949ZM146.306 17.413V19.974H141.015V17.413H146.306ZM138.805 9.847V14.553H139.884V9.847H138.805ZM138.805 14.111V15.021H139.728C141.483 15.021 143.238 14.904 145.227 14.488L145.097 13.604C143.173 13.994 141.418 14.111 139.728 14.111H138.805ZM153.934 10.107C152.101 10.107 150.775 11.238 150.775 12.876C150.775 14.527 152.101 15.658 153.934 15.658C155.767 15.658 157.08 14.527 157.08 12.876C157.08 11.238 155.767 10.107 153.934 10.107ZM153.934 11.043C155.143 11.043 156.027 11.784 156.027 12.876C156.027 13.968 155.143 14.722 153.934 14.722C152.712 14.722 151.828 13.968 151.828 12.876C151.828 11.784 152.712 11.043 153.934 11.043ZM158.614 9.249V21.027H159.693V9.249H158.614ZM150.333 18.453C152.426 18.453 155.299 18.44 157.938 17.933L157.847 17.14C155.286 17.543 152.322 17.556 150.177 17.556L150.333 18.453ZM165.124 10.276V11.173C165.124 12.772 163.915 14.228 162.147 14.8L162.693 15.658C164.669 14.982 166.021 13.24 166.021 11.173V10.276H165.124ZM165.332 10.276V11.173C165.332 13.162 166.71 14.813 168.66 15.45L169.193 14.605C167.464 14.059 166.229 12.694 166.229 11.173V10.276H165.332ZM162.446 10.029V10.9H168.881V10.029H162.446ZM170.545 9.262V15.619H171.637V9.262H170.545ZM164.058 16.204V20.858H171.637V16.204H170.571V17.595H165.124V16.204H164.058ZM165.124 18.466H170.571V19.974H165.124V18.466ZM174.403 10.211V11.095H180.708V10.211H174.403ZM174.208 15.684C176.223 15.684 178.966 15.645 181.358 15.268L181.267 14.462C178.94 14.748 176.132 14.774 174.078 14.774L174.208 15.684ZM175.56 10.835V15.086H176.6V10.835H175.56ZM178.498 10.835V15.086H179.551V10.835H178.498ZM175.664 16.971V17.855H182.424V21.014H183.516V16.971H175.664ZM182.424 9.262V16.386H183.516V9.262H182.424ZM191.664 12.057V12.954H194.823V12.057H191.664ZM188.96 9.795C187.205 9.795 185.931 10.913 185.931 12.525C185.931 14.137 187.205 15.242 188.96 15.242C190.715 15.242 191.989 14.137 191.989 12.525C191.989 10.913 190.715 9.795 188.96 9.795ZM188.96 10.705C190.117 10.705 190.949 11.446 190.949 12.525C190.949 13.591 190.117 14.345 188.96 14.345C187.803 14.345 186.971 13.591 186.971 12.525C186.971 11.446 187.803 10.705 188.96 10.705ZM194.342 9.262V15.567H195.421V9.262H194.342ZM187.894 16.152V20.858H195.421V16.152H194.355V17.634H188.973V16.152H187.894ZM188.973 18.492H194.355V19.987H188.973V18.492Z" fill="#7E8389"/>
<g filter="url(#filter0_dd_360_1484)">
<rect x="222.667" y="2" width="110.333" height="28.0024" rx="7" fill="#0B735F"/>
<path d="M247.086 15.164V17.283H248.815V15.164H247.086ZM242.51 14.592V15.957H253.391V14.592H242.51ZM247.931 16.815C245.318 16.815 243.745 17.595 243.745 18.986C243.745 20.377 245.318 21.157 247.931 21.157C250.531 21.157 252.104 20.377 252.104 18.986C252.104 17.595 250.531 16.815 247.931 16.815ZM247.931 18.115C249.543 18.115 250.362 18.388 250.362 18.986C250.362 19.571 249.543 19.857 247.931 19.857C246.319 19.857 245.5 19.571 245.5 18.986C245.5 18.388 246.319 18.115 247.931 18.115ZM246.761 10.25V10.549C246.761 11.485 245.604 12.551 242.965 12.772L243.563 14.124C246.67 13.838 248.295 12.356 248.295 10.549V10.25H246.761ZM247.606 10.25V10.549C247.606 12.369 249.244 13.838 252.338 14.124L252.936 12.772C250.284 12.551 249.14 11.498 249.14 10.549V10.25H247.606ZM243.498 9.613V10.978H252.416V9.613H243.498ZM262.124 9.119V17.738H263.866V9.119H262.124ZM263.372 12.473V13.89H265.465V12.473H263.372ZM258.77 10.016V10.874C258.77 12.785 257.249 14.397 254.298 15.203L255.026 16.581C258.614 15.541 260.616 13.292 260.616 10.016H258.77ZM254.818 10.016V11.407H259.706V10.016H254.818ZM256.079 19.571V20.949H264.269V19.571H256.079ZM256.079 16.867V20.182H257.821V16.867H256.079ZM269.167 11.017V12.369C269.167 14.41 268.192 16.633 266.177 17.53L267.152 18.895C269.414 17.868 270.545 15.151 270.545 12.369V11.017H269.167ZM269.557 11.017V12.369C269.557 15.047 270.675 17.608 272.963 18.596L273.899 17.231C271.884 16.399 270.922 14.319 270.922 12.369V11.017H269.557ZM266.658 10.276V11.693H273.405V10.276H266.658ZM274.523 9.119V21.157H276.265V9.119H274.523ZM284.66 11.888V13.292H286.948V11.888H284.66ZM286.493 9.119V16.074H288.222V9.119H286.493ZM280.201 16.568V21.027H288.222V16.568H280.201ZM286.532 17.92V19.662H281.904V17.92H286.532ZM280.929 10.237V10.991C280.929 12.512 280.071 14.085 278.082 14.735L278.953 16.1C281.267 15.346 282.333 13.266 282.333 10.991V10.237H280.929ZM281.293 10.237V10.991C281.293 13.136 282.32 15.138 284.556 15.879L285.401 14.514C283.503 13.877 282.684 12.395 282.684 10.991V10.237H281.293ZM278.55 9.73V11.095H285.024V9.73H278.55ZM290.546 9.977V11.368H297.033V9.977H290.546ZM290.416 16.048C292.496 16.048 295.187 15.996 297.605 15.606L297.475 14.345C295.148 14.618 292.34 14.644 290.234 14.644L290.416 16.048ZM291.495 11.082V15.112H293.146V11.082H291.495ZM294.407 11.082V15.112H296.084V11.082H294.407ZM291.82 16.971V18.349H298.294V21.157H300.036V16.971H291.82ZM298.294 9.119V16.477H300.036V9.119H298.294ZM307.989 11.771V13.162H311.005V11.771H307.989ZM305.233 9.613C303.413 9.613 302.048 10.822 302.048 12.486C302.048 14.163 303.413 15.359 305.233 15.359C307.04 15.359 308.405 14.163 308.405 12.486C308.405 10.822 307.04 9.613 305.233 9.613ZM305.233 11.056C306.117 11.056 306.754 11.589 306.754 12.486C306.754 13.383 306.117 13.929 305.233 13.929C304.349 13.929 303.699 13.383 303.699 12.486C303.699 11.589 304.349 11.056 305.233 11.056ZM310.251 9.119V15.593H311.98V9.119H310.251ZM303.985 16.113V21.027H311.98V16.113H310.264V17.257H305.701V16.113H303.985ZM305.701 18.583H310.264V19.649H305.701V18.583Z" fill="white"/>
<rect x="222.417" y="1.75" width="110.833" height="28.5024" rx="7.25" stroke="black" stroke-opacity="0.04" stroke-width="0.5"/>
</g>
</g>
<defs>
<filter id="filter0_dd_360_1484" x="214.167" y="-3.5" width="127.333" height="45.0023" filterUnits="userSpaceOnUse" color-interpolation-filters="sRGB">
<feFlood flood-opacity="0" result="BackgroundImageFix"/>
<feColorMatrix in="SourceAlpha" type="matrix" values="0 0 0 0 0 0 0 0 0 0 0 0 0 0 0 0 0 0 127 0" result="hardAlpha"/>
<feOffset dy="3"/>
<feGaussianBlur stdDeviation="0.5"/>
<feColorMatrix type="matrix" values="0 0 0 0 0 0 0 0 0 0 0 0 0 0 0 0 0 0 0.04 0"/>
<feBlend mode="normal" in2="BackgroundImageFix" result="effect1_dropShadow_360_1484"/>
<feColorMatrix in="SourceAlpha" type="matrix" values="0 0 0 0 0 0 0 0 0 0 0 0 0 0 0 0 0 0 127 0" result="hardAlpha"/>
<feOffset dy="3"/>
<feGaussianBlur stdDeviation="4"/>
<feColorMatrix type="matrix" values="0 0 0 0 0 0 0 0 0 0 0 0 0 0 0 0 0 0 0.12 0"/>
<feBlend mode="normal" in2="effect1_dropShadow_360_1484" result="effect2_dropShadow_360_1484"/>
<feBlend mode="normal" in="SourceGraphic" in2="effect2_dropShadow_360_1484" result="shape"/>
</filter>
<clipPath id="clip0_360_1484">
<rect width="335" height="32" rx="8" fill="white"/>
</clipPath>
</defs>
</svg>
