<svg width="20" height="20" viewBox="0 0 20 20" fill="none" xmlns="http://www.w3.org/2000/svg">
<path d="M11.9523 19.5238C12.6396 19.5238 13.1265 18.9601 13.4797 18.0873L19.7327 2.53098C19.9045 2.11275 20 1.73998 20 1.43085C20 0.839874 19.6181 0.476196 18.9976 0.476196C18.673 0.476196 18.2816 0.567116 17.8425 0.730771L1.42243 6.72236C0.620525 7.0133 0 7.47699 0 8.1407C0 8.97716 0.668258 9.25901 1.58473 9.52268L6.73986 11.0138C7.35084 11.1956 7.69451 11.1774 8.10501 10.8137L18.5776 1.49449C18.7017 1.38539 18.8449 1.40357 18.9403 1.4854C19.0358 1.57632 19.0453 1.7127 18.9308 1.8309L9.18377 11.8411C8.81146 12.2139 8.78282 12.523 8.9642 13.1322L10.4821 17.9327C10.7685 18.851 11.0644 19.5238 11.9523 19.5238Z" fill="white"/>
</svg>
