<svg width="314" height="68" viewBox="0 0 314 68" fill="none" xmlns="http://www.w3.org/2000/svg">
<g filter="url(#filter0_d_413_732)">
<path d="M4 10C4 4.47715 8.47715 0 14 0H300C305.523 0 310 4.47715 310 10V50C310 55.5228 305.523 60 300 60H14C8.47715 60 4 55.5228 4 50V10Z" fill="#0B735F"/>
<path d="M100.81 21.9V34.4H108.13V21.9H105.67V26.06H103.31V21.9H100.81ZM103.31 28.14H105.67V32.28H103.31V28.14ZM113.67 20.26V38.78H116.21V20.26H113.67ZM111.39 27.32V29.46H114.47V27.32H111.39ZM109.61 20.54V37.94H112.11V20.54H109.61ZM119.329 26.98V29.06H120.869C124.829 29.06 127.069 28.98 129.449 28.44L129.169 26.38C126.829 26.86 124.729 26.98 120.869 26.98H119.329ZM119.329 21.22V28.14H121.969V23.3H127.609V21.22H119.329ZM130.609 20.26V29.46H133.269V20.26H130.609ZM132.529 23.74V25.9H135.729V23.74H132.529ZM121.029 30.22V32.3H130.649V33.38H121.069V37.56H123.709V35.34H133.269V30.22H121.029ZM121.069 36.48V38.58H133.809V36.48H121.069ZM137.467 21.68V23.8H147.347V21.68H137.467ZM137.267 30.78C140.267 30.78 144.487 30.7 148.167 29.98L147.987 28.06C144.387 28.56 140.047 28.62 136.987 28.62L137.267 30.78ZM138.927 23.3V29.42H141.487V23.3H138.927ZM143.347 23.3V29.42H145.887V23.3H143.347ZM149.007 20.26V32.76H151.667V20.26H149.007ZM150.927 25.04V27.22H154.127V25.04H150.927ZM144.447 31.78V32.1C144.447 34.1 142.627 36.12 138.667 36.64L139.687 38.72C144.227 38.02 146.727 35.38 146.727 32.1V31.78H144.447ZM144.827 31.78V32.1C144.827 35.38 147.327 38.02 151.867 38.72L152.867 36.64C148.927 36.12 147.087 34.1 147.087 32.1V31.78H144.827ZM160.134 34.48V36.64H176.894V34.48H160.134ZM167.154 30.38V34.98H169.814V30.38H167.154ZM161.874 21.62V30.72H175.054V21.62H161.874ZM172.454 23.74V28.62H164.494V23.74H172.454ZM186.893 21.18C182.993 21.18 179.973 23.32 179.973 26.54C179.973 29.78 182.993 31.9 186.893 31.9C190.793 31.9 193.813 29.78 193.813 26.54C193.813 23.32 190.793 21.18 186.893 21.18ZM186.893 23.34C189.413 23.34 191.213 24.54 191.213 26.54C191.213 28.52 189.413 29.72 186.893 29.72C184.373 29.72 182.573 28.52 182.573 26.54C182.573 24.54 184.373 23.34 186.893 23.34ZM178.533 34.38V36.56H195.293V34.38H178.533ZM209.671 20.26V38.78H212.351V20.26H209.671ZM204.211 22.18V22.66C204.211 27.62 202.291 30.98 196.971 33.54L198.351 35.66C204.931 32.48 206.851 27.84 206.851 22.18H204.211ZM197.951 22.18V24.28H205.471V22.18H197.951Z" fill="#FCFCFE"/>
</g>
<defs>
<filter id="filter0_d_413_732" x="0" y="0" width="314" height="68" filterUnits="userSpaceOnUse" color-interpolation-filters="sRGB">
<feFlood flood-opacity="0" result="BackgroundImageFix"/>
<feColorMatrix in="SourceAlpha" type="matrix" values="0 0 0 0 0 0 0 0 0 0 0 0 0 0 0 0 0 0 127 0" result="hardAlpha"/>
<feOffset dy="4"/>
<feGaussianBlur stdDeviation="2"/>
<feComposite in2="hardAlpha" operator="out"/>
<feColorMatrix type="matrix" values="0 0 0 0 0 0 0 0 0 0 0 0 0 0 0 0 0 0 0.25 0"/>
<feBlend mode="normal" in2="BackgroundImageFix" result="effect1_dropShadow_413_732"/>
<feBlend mode="normal" in="SourceGraphic" in2="effect1_dropShadow_413_732" result="shape"/>
</filter>
</defs>
</svg>
